<?xml version="1.0" encoding="utf-8"?>
<!-- Generator: Adobe Illustrator 16.0.0, SVG Export Plug-In . SVG Version: 6.00 Build 0)  -->
<!DOCTYPE svg PUBLIC "-//W3C//DTD SVG 1.1//EN" "http://www.w3.org/Graphics/SVG/1.1/DTD/svg11.dtd">
<svg version="1.1" id="Layer_1" xmlns="http://www.w3.org/2000/svg" xmlns:xlink="http://www.w3.org/1999/xlink" x="0px" y="0px"
	 width="300px" height="200px" viewBox="0 0 300 200" enable-background="new 0 0 300 200" xml:space="preserve">
<g>
	<ellipse fill="#7F7F7F" cx="150" cy="100" rx="150" ry="98.915"/>
	<g>
		<path fill="#FFFFFF" d="M103.289,55.272c0.055,2.059-1.127,3.467-3.544,4.223c-0.302,0.721-0.586,1.219-0.853,1.493
			c-0.409,0.413-1.013,0.653-1.813,0.722c-0.516,0.034-1.067,0.009-1.654-0.076c-1.049-0.154-2.338-0.342-3.868-0.563
			c-0.427-0.068-0.684-0.317-0.774-0.746c0.071-0.463,0.569-0.738,1.493-0.825c1.263-0.086,3.129-0.302,5.601-0.646
			c0.924-0.207,1.582-0.713,1.973-1.52c0.23-0.412,0.346-0.918,0.346-1.519c-0.001-1.081-0.563-2.985-1.684-5.712
			c-1.105-2.659-1.622-4.434-1.551-5.327c0.141-2.145,2.194-3.639,6.159-4.482c0.391-0.086,0.587,0.051,0.587,0.411
			c0,0.206-0.142,0.369-0.426,0.49c-1.92,0.808-2.879,1.803-2.879,2.987c0,0.463,0.09,1.042,0.268,1.737s0.713,2.363,1.604,5.005
			C102.931,52.828,103.271,54.278,103.289,55.272z M107.546,40.497c0,0.772-0.212,2.007-0.638,3.707
			c-0.16,0.583-0.337,0.961-0.533,1.132c-0.089,0.086-0.391,0.215-0.907,0.387c-0.658,0.241-1.066,0.361-1.227,0.361
			c-0.267,0-0.4-0.17-0.4-0.514c0-0.188,0.035-0.438,0.106-0.746c0.426-1.699,0.589-2.879,0.491-3.54
			c-0.099-0.66,0.102-1.076,0.599-1.249c0.871-0.429,1.431-0.645,1.68-0.645C107.27,39.39,107.546,39.759,107.546,40.497z"/>
		<path fill="#FFFFFF" d="M125.367,44.809c-0.035,1.527-0.416,3.552-1.143,6.075c-1.154,3.981-2.787,7.071-4.901,9.268
			c-1.119,1.167-2.364,1.752-3.733,1.752c-0.533,0-1.218-0.111-2.054-0.333c-1.671-0.102-3.032-0.607-4.082-1.516
			c-1.139-0.994-1.673-2.272-1.603-3.833c0.07-1.819,0.717-4.358,1.942-7.619c1.349-3.553,2.752-6.11,4.209-7.672
			c0.693-0.755,1.262-1.133,1.706-1.133c0.604,0,1.583,0.6,2.936,1.799c0.373-0.171,1.137-0.489,2.293-0.954
			c0.587-0.189,1.031-0.284,1.333-0.284c0.694,0,1.468,0.626,2.322,1.877C125.143,43.008,125.402,43.866,125.367,44.809z
			 M122.3,45.557c0.124-1.149,0.186-1.879,0.185-2.188c0-0.721-0.231-1.081-0.694-1.081c-0.178,0-0.409,0.035-0.693,0.104
			l-4.133,1.624c-0.48,0.189-0.756,0.283-0.827,0.284c-0.142,0-0.284-0.163-0.427-0.489c-1.031,1.219-1.99,2.979-2.877,5.278
			c-0.692,1.802-1.171,3.415-1.437,4.839c-0.195,0.961-0.292,1.836-0.292,2.625c0.002,2.642,0.847,3.929,2.537,3.859
			c0.675-0.018,1.404-0.275,2.187-0.773c1.493-0.979,2.887-2.936,4.184-5.871C121.254,51.006,122.017,48.269,122.3,45.557z"/>
		<path fill="#FFFFFF" d="M144.384,44.797c-0.035,1.527-0.416,3.552-1.143,6.075c-1.154,3.981-2.787,7.07-4.901,9.268
			c-1.119,1.167-2.364,1.751-3.733,1.752c-0.533,0-1.218-0.111-2.054-0.333c-1.671-0.102-3.032-0.607-4.082-1.516
			c-1.139-0.994-1.673-2.272-1.603-3.834c0.07-1.818,0.717-4.358,1.942-7.619c1.349-3.553,2.752-6.11,4.209-7.672
			c0.693-0.755,1.262-1.133,1.706-1.133c0.604,0,1.583,0.6,2.936,1.799c0.373-0.171,1.137-0.489,2.293-0.954
			c0.587-0.189,1.031-0.284,1.333-0.284c0.694,0,1.468,0.625,2.322,1.877C144.161,42.996,144.419,43.854,144.384,44.797z
			 M141.317,45.545c0.124-1.149,0.186-1.879,0.185-2.188c0-0.721-0.231-1.081-0.694-1.081c-0.178,0-0.409,0.035-0.693,0.104
			l-4.133,1.624c-0.48,0.189-0.756,0.283-0.827,0.283c-0.142,0-0.284-0.162-0.427-0.488c-1.031,1.219-1.99,2.979-2.877,5.278
			c-0.692,1.802-1.171,3.415-1.437,4.839c-0.195,0.961-0.292,1.836-0.292,2.625c0.002,2.642,0.847,3.929,2.537,3.859
			c0.675-0.018,1.404-0.275,2.187-0.773c1.493-0.979,2.887-2.936,4.184-5.871C140.272,50.994,141.035,48.257,141.317,45.545z"/>
		<path fill="#FFFFFF" d="M164.547,42.468c-0.444,0.978-0.95,2.137-1.518,3.476c0.125,0.343,0.525,0.926,1.201,1.749
			c0.125,0.171,0.098,0.343-0.08,0.515c-0.178,0.172-0.418,0.258-0.72,0.258c-0.427,0-0.8-0.188-1.121-0.565
			c-1.172,2.558-2.503,5.158-3.996,7.801c-1.563,2.815-2.682,4.557-3.357,5.227c-0.586,0.566-1.173,0.85-1.76,0.851
			c-0.551,0-1.04-0.214-1.467-0.643c-0.675,0.274-1.165,0.413-1.466,0.413c-0.623,0-1.104-0.522-1.441-1.569
			c-0.464-1.475-0.696-3.577-0.698-6.305c-0.003-3.895,0.342-6.803,1.034-8.725c-0.391,0.343-1.137,1.099-2.239,2.266
			c-0.196,0.206-0.418,0.309-0.667,0.31c-0.338,0-0.507-0.146-0.507-0.438c0-0.155,0.08-0.335,0.24-0.541
			c1.066-1.39,2.46-3.235,4.184-5.536c0.443-0.618,0.906-0.928,1.386-0.928c0.534,0,1.352,0.411,2.455,1.233
			c0.231,0.189,0.347,0.395,0.347,0.618c0,0.429-0.32,0.747-0.96,0.953c-1.563,3.227-2.342,6.856-2.339,10.888
			c0.001,2.076,0.26,3.809,0.777,5.198c0.196,0.549,0.463,0.824,0.801,0.823c0.338,0,0.729-0.292,1.173-0.875
			c1.368-1.837,2.718-4.085,4.05-6.746c1.189-2.385,1.979-4.299,2.37-5.741c-0.231-0.394-0.348-0.917-0.348-1.569
			c0-1.167,0.389-2.72,1.171-4.659c0.336-0.807,0.772-1.21,1.306-1.211c0.302,0,0.924,0.266,1.867,0.797
			c0.462,0.257,0.694,0.601,0.694,1.029C164.92,41.129,164.795,41.678,164.547,42.468z"/>
		<path fill="#FFFFFF" d="M172.763,43.569c-0.425,2.316-1.534,6.169-3.326,11.558c0.515-0.446,1.226-1.262,2.132-2.446
			c0.124-0.154,0.249-0.231,0.373-0.231c0.284,0,0.32,0.24,0.107,0.721c-0.089,0.189-0.835,1.364-2.238,3.527
			c-1.066,1.647-1.848,3.106-2.344,4.376c-0.16,0.395-0.453,0.592-0.879,0.592c-0.427,0-1.005-0.197-1.734-0.591
			c-0.463-0.24-0.693-0.42-0.694-0.54c0-0.103,0.097-0.326,0.293-0.669c0.958-1.631,2.023-4.359,3.195-8.187
			c1.118-3.707,1.747-6.46,1.888-8.262c0.053-0.772-0.027-1.158-0.241-1.158c-0.16,0-0.444,0.189-0.854,0.567l-1.652,1.494
			c-0.586,0.515-0.88,0.541-0.88,0.078c0-0.137,0.08-0.309,0.24-0.515c0.834-1.133,1.723-2.206,2.665-3.219
			c0.284-0.292,0.56-0.438,0.827-0.438c0.284,0,0.702,0.188,1.253,0.565c0.818,0.206,1.271,0.333,1.361,0.385
			c0.409,0.241,0.614,0.687,0.614,1.338C172.869,42.823,172.834,43.174,172.763,43.569z M176.516,32.294
			c0.285,0.206,0.427,0.437,0.427,0.694c0,0.498-0.764,1.271-2.292,2.318c-1.013,0.67-1.991,0.911-2.934,0.723
			c-0.533-0.103-0.997-0.291-1.387-0.565c-0.125-0.103-0.218-0.21-0.281-0.322c-0.063-0.111-0.076-0.201-0.04-0.27
			c0.054-0.068,0.16-0.085,0.32-0.051c1.635-1.374,2.71-2.361,3.225-2.962c0.409-0.446,0.702-0.669,0.88-0.67
			C174.755,31.188,175.449,31.557,176.516,32.294z"/>
		<path fill="#FFFFFF" d="M208.516,21.104c0.213,0.154,0.32,0.326,0.321,0.515c0,0.326-0.215,0.489-0.641,0.489
			c-0.16,0-0.33-0.042-0.508-0.128c-0.835-0.394-1.458-0.591-1.867-0.591c-1.103,0-2.319,1.048-3.651,3.143
			c-4.885,7.707-8.443,17.969-10.674,30.788c0.461-0.429,1.083-1.099,1.865-2.009c0.462-0.532,0.8-0.798,1.013-0.798
			c0.48,0,0.524,0.266,0.134,0.798c-1.706,2.283-2.833,4.746-3.382,7.388c-0.213,0.635-0.479,0.953-0.8,0.953
			c-0.16,0-0.356-0.077-0.587-0.231c-0.89-0.583-1.388-0.926-1.495-1.028c-0.356-0.326-0.534-0.763-0.534-1.313
			c0-0.292,0.044-0.634,0.133-1.029c0.761-3.964,1.391-6.915,1.887-8.855c-1.741,2.421-3.708,4.837-5.902,7.249
			c-2.195,2.412-3.79,3.936-4.785,4.571c-0.764,0.498-1.333,0.747-1.707,0.748c-0.32,0-0.809-0.249-1.467-0.745
			c-1.157-0.686-1.735-1.483-1.735-2.393c0-0.155,0.018-0.326,0.053-0.515c0.372-2.557,1.557-5.521,3.555-8.895
			c1.999-3.373,4.286-6.209,6.862-8.51c0.835-0.755,1.582-1.125,2.24-1.108c0.693,0.034,1.93,0.848,3.709,2.443
			c0.16,0.137,0.24,0.283,0.24,0.438c0,0.274-0.187,0.412-0.56,0.412c-0.125,0-0.258-0.026-0.4-0.077
			c-1.245-0.514-2.258-0.496-3.041,0.053c-1.67,1.202-3.509,3.289-5.517,6.257c-2.327,3.434-3.694,6.523-4.101,9.268
			c-0.089,0.652,0.089,0.978,0.534,0.978c0.587,0,1.307-0.404,2.16-1.211c1.972-1.871,4.095-4.223,6.37-7.056
			c2.328-2.936,3.82-5.15,4.477-6.643c0.373-0.824,0.666-1.613,0.878-2.368c1.845-6.315,3.904-11.712,6.177-16.192
			c1.775-3.501,3.339-5.853,4.689-7.055c0.497-0.463,0.978-0.695,1.44-0.696c0.497,0,1.138,0.283,1.921,0.849
			C206.71,19.698,207.609,20.401,208.516,21.104z"/>
		<path fill="#FFFFFF" d="M59.023,109.766c0.055,2.059-1.127,3.467-3.544,4.223c-0.302,0.721-0.586,1.219-0.853,1.493
			c-0.409,0.413-1.013,0.652-1.813,0.722c-0.516,0.035-1.067,0.01-1.654-0.076c-1.049-0.154-2.338-0.342-3.868-0.563
			c-0.427-0.068-0.685-0.317-0.774-0.746c0.071-0.463,0.569-0.738,1.493-0.825c1.263-0.086,3.129-0.302,5.601-0.647
			c0.924-0.207,1.582-0.713,1.973-1.52c0.231-0.412,0.346-0.918,0.346-1.519c0-1.081-0.562-2.985-1.684-5.712
			c-1.105-2.658-1.621-4.434-1.551-5.326c0.141-2.145,2.194-3.639,6.159-4.482c0.391-0.085,0.587,0.051,0.587,0.412
			c0,0.206-0.143,0.369-0.427,0.489c-1.92,0.808-2.879,1.803-2.878,2.987c0,0.463,0.089,1.042,0.268,1.737
			c0.178,0.694,0.713,2.363,1.604,5.005C58.666,107.322,59.005,108.771,59.023,109.766z M63.281,94.991
			c0,0.772-0.212,2.007-0.637,3.706c-0.16,0.584-0.337,0.961-0.533,1.133c-0.089,0.086-0.391,0.215-0.906,0.386
			c-0.658,0.241-1.067,0.361-1.227,0.361c-0.267,0-0.4-0.171-0.4-0.515c0-0.188,0.035-0.438,0.105-0.746
			c0.426-1.699,0.589-2.878,0.491-3.539c-0.098-0.66,0.102-1.076,0.6-1.249c0.871-0.429,1.431-0.645,1.68-0.645
			C63.004,93.884,63.28,94.253,63.281,94.991z"/>
		<path fill="#FFFFFF" d="M84.327,96.933c-2.362,4.24-4.128,9.216-5.298,14.931c0.497-0.841,1.102-1.914,1.812-3.218
			c0.088-0.24,0.23-0.36,0.426-0.36c0.267,0,0.4,0.163,0.4,0.488c0,0.103-0.027,0.215-0.08,0.335
			c-1.136,2.506-1.881,4.437-2.236,5.792c-0.213,0.858-0.498,1.287-0.853,1.287c-0.356,0-1.05-0.333-2.081-1.002
			c-0.551-0.377-0.739-1.046-0.562-2.007c0.744-3.741,1.64-6.992,2.687-9.756c-3.428,5.39-6.306,9.364-8.634,11.922
			c-0.515,0.566-1.076,0.85-1.68,0.85c-0.498,0-1.085-0.197-1.761-0.591c-1.227-0.205-1.841-0.822-1.842-1.852
			c0-0.188,0.017-0.395,0.053-0.618c0.44-4.907,1.362-8.983,2.766-12.227c-0.303,0.274-0.756,0.678-1.36,1.21
			c-0.231,0.189-0.409,0.24-0.533,0.155c-0.143-0.103-0.116-0.3,0.08-0.592c0.959-1.356,1.528-2.249,1.705-2.678
			c0.55-1.339,1.127-2.376,1.732-3.115c0.319-0.377,0.657-0.566,1.013-0.566c0.48,0,1.182,0.273,2.107,0.822
			c0.249,0.154,0.374,0.308,0.374,0.462l-0.586,0.85c-0.888,1.304-1.829,3.604-2.822,6.899c-1.083,3.57-1.632,6.479-1.648,8.726
			c0,0.738,0.161,1.106,0.481,1.106c0.284,0,0.747-0.318,1.386-0.953c1.368-1.407,3.349-4.068,5.942-7.982
			c2.292-3.45,3.677-5.699,4.156-6.746c0.799-1.75,1.447-2.781,1.945-3.089c0.32-0.207,0.604-0.31,0.854-0.31
			c0.249,0,0.729,0.18,1.44,0.54c0.711,0.36,1.067,0.625,1.067,0.797c0,0.051-0.062,0.12-0.186,0.206
			C84.469,96.736,84.38,96.831,84.327,96.933z M76.984,85.717c0.054,0.704-0.239,1.845-0.878,3.424
			c-0.586,1.476-1.012,2.214-1.279,2.214c-0.213,0-0.462-0.149-0.747-0.45c-0.285-0.299-0.445-0.553-0.481-0.759
			c0-0.223,0.053-0.309,0.16-0.257c0.55-1.407,0.949-3.115,1.197-5.123c0.035-0.326,0.168-0.677,0.399-1.055
			c0.089-0.017,0.507,0.369,1.255,1.157C76.806,85.074,76.931,85.356,76.984,85.717z M82.666,85.713
			c0.071,0.635-0.221,1.759-0.878,3.372c-0.604,1.494-1.039,2.24-1.305,2.24c-0.054,0-0.107-0.008-0.16-0.026
			c-0.623-0.36-0.97-0.746-1.042-1.158c0-0.206,0.054-0.309,0.16-0.309c0.604-1.51,1.02-3.218,1.25-5.123
			c0.017-0.309,0.133-0.644,0.346-1.004c0.089-0.017,0.507,0.369,1.254,1.157C82.505,85.104,82.629,85.388,82.666,85.713z"/>
		<path fill="#FFFFFF" d="M105.912,106.416c-1.066,1.563-2.451,3.828-4.156,6.797c-0.32,0.772-0.631,1.544-0.932,2.317
			c-0.25,0.531-0.578,0.798-0.986,0.798c-0.32,0-0.792-0.128-1.415-0.385c-0.693-0.274-1.041-0.548-1.041-0.823
			c0-0.12,0.115-0.386,0.346-0.798c1.154-2.266,2.184-5.088,3.088-8.469c0.975-3.552,1.391-6.263,1.248-8.134
			c-0.036-0.754-0.214-1.132-0.534-1.132c-0.231,0-0.578,0.215-1.04,0.644c-4.478,4.224-8.351,9.871-11.618,16.942
			c-0.409,0.875-0.889,1.313-1.439,1.313c-0.392,0-1.041-0.214-1.947-0.643c-0.356-0.154-0.543-0.299-0.561-0.437
			c0-0.068,0.097-0.309,0.293-0.72c1.029-2.18,2.05-4.943,3.062-8.29c1.082-3.621,1.693-6.444,1.834-8.469
			c0.035-0.618,0.017-0.926-0.054-0.926c-0.018,0-0.267,0.231-0.747,0.695c-0.48,0.464-1.146,1.065-2,1.803
			c-0.16,0.154-0.337,0.231-0.533,0.231c-0.25,0-0.374-0.094-0.374-0.283c0-0.137,0.089-0.292,0.267-0.463
			c0.763-0.944,1.768-2.121,3.012-3.528c0.266-0.292,0.542-0.438,0.826-0.438c0.427,0,0.8,0.3,1.121,0.9
			c1.441,0.411,2.117,1.045,2.029,1.903c-0.194,1.888-1.197,5.294-3.007,10.219c1.19-2.214,2.922-4.69,5.196-7.429
			c2.274-2.738,3.962-4.355,5.064-4.854c0.551-0.241,0.942-0.361,1.174-0.361c0.231,0,0.604,0.188,1.12,0.566
			c1.476,0.497,2.206,1.32,2.189,2.469c0.001,1.201-0.3,3.131-0.903,5.791c-0.479,2.197-0.922,3.904-1.33,5.123
			c0.515-0.635,1.172-1.459,1.972-2.472c0.142-0.171,0.284-0.257,0.426-0.257c0.267,0,0.4,0.163,0.4,0.488
			C105.964,106.21,105.947,106.313,105.912,106.416z"/>
		<path fill="#FFFFFF" d="M128.85,106.401c-1.066,1.562-2.451,3.828-4.156,6.797c-0.32,0.772-0.631,1.544-0.932,2.317
			c-0.25,0.531-0.578,0.798-0.986,0.798c-0.32,0-0.792-0.128-1.415-0.385c-0.693-0.274-1.041-0.548-1.041-0.823
			c0-0.12,0.115-0.386,0.346-0.798c1.154-2.266,2.184-5.088,3.088-8.469c0.975-3.552,1.391-6.263,1.248-8.134
			c-0.036-0.754-0.214-1.132-0.534-1.132c-0.231,0-0.578,0.215-1.04,0.644c-4.478,4.224-8.351,9.871-11.618,16.942
			c-0.409,0.875-0.889,1.313-1.439,1.313c-0.392,0-1.041-0.213-1.947-0.642c-0.356-0.154-0.543-0.299-0.561-0.437
			c0-0.068,0.097-0.309,0.293-0.721c1.029-2.18,2.05-4.943,3.062-8.289c1.082-3.621,1.693-6.444,1.834-8.469
			c0.035-0.618,0.017-0.926-0.054-0.926c-0.018,0-0.267,0.231-0.747,0.695c-0.48,0.463-1.146,1.064-2,1.803
			c-0.16,0.155-0.337,0.232-0.533,0.232c-0.25,0-0.374-0.094-0.374-0.283c0-0.137,0.089-0.292,0.267-0.463
			c0.763-0.944,1.768-2.12,3.012-3.528c0.266-0.292,0.542-0.438,0.826-0.438c0.427,0,0.8,0.3,1.121,0.9
			c1.441,0.411,2.117,1.045,2.029,1.903c-0.194,1.887-1.197,5.294-3.007,10.219c1.19-2.214,2.922-4.69,5.196-7.429
			c2.274-2.738,3.962-4.355,5.064-4.854c0.551-0.24,0.942-0.361,1.174-0.361c0.231,0,0.604,0.188,1.12,0.565
			c1.476,0.497,2.206,1.32,2.189,2.469c0.001,1.201-0.3,3.132-0.903,5.792c-0.479,2.196-0.922,3.904-1.33,5.122
			c0.515-0.635,1.172-1.458,1.972-2.472c0.142-0.171,0.284-0.258,0.426-0.258c0.267,0,0.4,0.163,0.4,0.489
			C128.903,106.195,128.885,106.298,128.85,106.401z"/>
		<path fill="#FFFFFF" d="M139.06,98.056c-0.425,2.317-1.534,6.169-3.326,11.558c0.515-0.446,1.226-1.262,2.132-2.446
			c0.124-0.154,0.248-0.231,0.373-0.232c0.284,0,0.321,0.24,0.107,0.721c-0.089,0.189-0.835,1.364-2.238,3.527
			c-1.065,1.648-1.847,3.107-2.344,4.376c-0.16,0.395-0.453,0.592-0.88,0.592c-0.427,0-1.005-0.196-1.734-0.59
			c-0.463-0.24-0.694-0.42-0.694-0.54c0-0.103,0.097-0.326,0.293-0.669c0.959-1.63,2.024-4.359,3.195-8.187
			c1.118-3.707,1.747-6.46,1.888-8.262c0.052-0.772-0.028-1.158-0.241-1.158c-0.16,0-0.444,0.189-0.853,0.567l-1.652,1.494
			c-0.586,0.515-0.88,0.541-0.88,0.078c0-0.137,0.08-0.309,0.24-0.515c0.835-1.133,1.723-2.206,2.665-3.219
			c0.284-0.292,0.56-0.438,0.827-0.438c0.284,0,0.702,0.189,1.254,0.566c0.818,0.206,1.271,0.333,1.36,0.385
			c0.409,0.24,0.614,0.686,0.614,1.338C139.166,97.31,139.13,97.661,139.06,98.056z M142.813,86.781
			c0.284,0.206,0.427,0.438,0.427,0.695c0,0.498-0.764,1.271-2.292,2.318c-1.013,0.669-1.991,0.911-2.934,0.723
			c-0.533-0.103-0.996-0.291-1.387-0.565c-0.125-0.103-0.218-0.21-0.28-0.322c-0.063-0.111-0.076-0.201-0.041-0.27
			c0.054-0.068,0.16-0.085,0.32-0.051c1.635-1.374,2.71-2.361,3.225-2.962c0.409-0.446,0.702-0.669,0.88-0.669
			C141.052,85.676,141.746,86.044,142.813,86.781z"/>
		<path fill="#FFFFFF" d="M162.373,99.688c-0.211,2.9-1,6.015-2.368,9.344c-1.278,3.106-2.539,5.226-3.783,6.359
			c-0.711,0.635-1.431,0.953-2.16,0.953c-0.818,0.001-2.179-0.633-4.083-1.901c-0.374-0.24-0.561-0.489-0.561-0.746
			c0-0.326,0.24-0.489,0.72-0.489c0.195,0,0.48,0.06,0.854,0.18c0.374,0.12,0.676,0.179,0.907,0.179
			c1.298,0,2.462-0.799,3.492-2.395c0.87-1.373,1.696-3.219,2.477-5.536c0.94-2.883,1.348-5.362,1.222-7.438
			c-0.054-0.995-0.401-1.493-1.041-1.492c-0.569,0-1.263,0.378-2.08,1.134c-5.757,5.323-9.807,11.682-12.149,19.079
			c-1.331,4.204-2.218,8.1-2.66,11.686c-0.018,0.12-0.255,3.097-0.714,8.931c-0.07,0.84-0.283,1.261-0.639,1.261
			c-0.374,0-1.041-0.42-2.001-1.26c-0.694-0.617-0.961-1.373-0.801-2.264c0.776-8.545,2.912-18.061,6.408-28.546
			c2.75-8.203,4.934-13.523,6.55-15.961c0.959-1.424,1.813-2.12,2.559-2.086c0.747,0.017,2.17,0.66,4.269,1.928
			c0.285,0.171,0.427,0.351,0.427,0.54c0,0.257-0.213,0.386-0.64,0.386c-0.106,0-0.285-0.021-0.534-0.064
			c-0.25-0.042-0.436-0.064-0.56-0.063c-1.121,0-2.284,0.919-3.492,2.755c-0.71,1.047-1.608,2.807-2.69,5.278
			c-1.083,2.471-1.864,4.505-2.343,6.101c2.611-4.12,5.649-7.656,9.115-10.609c0.533-0.447,1.013-0.67,1.439-0.67
			c0.196,0,0.685,0.257,1.468,0.771C161.401,95.854,162.532,97.406,162.373,99.688z"/>
		<path fill="#FFFFFF" d="M183.017,98.388c-1.633,4.376-2.759,8.049-3.379,11.018c0.267-0.24,0.617-0.609,1.053-1.107
			c0.436-0.498,0.706-0.79,0.813-0.875c0.249-0.309,0.515-0.464,0.799-0.464c0.267,0,0.401,0.129,0.401,0.386
			c0,0.154-0.071,0.334-0.213,0.541c-1.67,2.386-2.78,4.797-3.329,7.234c-0.16,0.686-0.399,1.03-0.719,1.03
			c-0.303,0-0.863-0.274-1.682-0.823c-0.48-0.308-0.756-0.565-0.827-0.771c-0.089-0.188-0.09-0.566,0-1.132
			c0.743-4.358,1.674-7.98,2.793-10.863c-1.545,2.42-3.651,5.098-6.316,8.034c-2.328,2.558-4.007,4.189-5.038,4.894
			c-0.747,0.498-1.315,0.747-1.707,0.747c-0.32,0-0.81-0.249-1.467-0.745c-0.943-0.549-1.415-1.303-1.416-2.264
			c0-0.188,0.018-0.403,0.053-0.643c0.318-2.54,1.472-5.496,3.461-8.869c1.989-3.373,4.272-6.218,6.849-8.536
			c0.835-0.755,1.582-1.125,2.239-1.108c0.64,0.034,1.858,0.849,3.656,2.443c0.16,0.137,0.24,0.283,0.24,0.438
			c0,0.274-0.187,0.412-0.56,0.412c-0.143,0-0.276-0.026-0.4-0.077c-1.263-0.514-2.277-0.496-3.041,0.053
			c-1.671,1.186-3.519,3.271-5.543,6.258c-2.345,3.434-3.756,6.523-4.235,9.268c-0.018,0.121-0.026,0.232-0.026,0.335
			c0,0.429,0.178,0.643,0.534,0.643c0.604,0,1.325-0.404,2.16-1.211c1.99-1.872,4.123-4.224,6.396-7.056
			c2.327-2.936,3.819-5.15,4.477-6.643c0.479-1.098,0.79-1.87,0.932-2.317c0.23-0.772,0.479-1.158,0.746-1.158
			c0.267,0,0.889,0.351,1.868,1.054c0.409,0.291,0.631,0.557,0.667,0.797C183.292,97.513,183.212,97.873,183.017,98.388z
			 M179.46,85.651c0.054,0.704-0.238,1.844-0.877,3.423c-0.586,1.476-1.012,2.214-1.279,2.214c-0.213,0-0.462-0.15-0.747-0.45
			c-0.285-0.3-0.445-0.553-0.481-0.759c0-0.223,0.053-0.309,0.16-0.257c0.55-1.407,0.949-3.114,1.197-5.122
			c0.035-0.326,0.168-0.678,0.399-1.056c0.089-0.017,0.507,0.369,1.254,1.157C179.282,85.007,179.407,85.291,179.46,85.651z
			 M185.142,85.647c0.072,0.635-0.221,1.759-0.877,3.372c-0.604,1.493-1.039,2.24-1.306,2.24c-0.053,0-0.106-0.008-0.16-0.026
			c-0.623-0.36-0.97-0.745-1.041-1.157c0-0.206,0.053-0.309,0.16-0.309c0.603-1.51,1.02-3.218,1.25-5.123
			c0.017-0.309,0.133-0.644,0.346-1.004c0.089-0.017,0.507,0.369,1.255,1.158C184.981,85.039,185.106,85.321,185.142,85.647z"/>
		<path fill="#FFFFFF" d="M199.587,108.183c-4.317,5.339-7.355,8.009-9.116,8.01c-0.836,0-1.894-0.556-3.175-1.67
			c-1.334-0.6-2.001-1.405-2.002-2.418c0-0.188,0.017-0.386,0.053-0.592c0.319-2.351,0.966-4.951,1.942-7.799
			c-0.659-0.326-0.987-0.634-0.987-0.926c0-0.24,0.186-0.36,0.56-0.361c0.284,0,0.578,0.077,0.88,0.231
			c1.58-3.433,3.001-5.87,4.263-7.312c0.817-0.961,1.555-1.442,2.212-1.443c0.302,0,1.049,0.249,2.241,0.745
			c-0.09-0.515,0.062-0.815,0.453-0.901c0.018,0,0.436,0,1.253-0.001c0.764,0,1.147,0.128,1.147,0.385
			c0,0.052-0.026,0.198-0.08,0.438c-0.053,0.241-0.08,0.463-0.08,0.669c0,0.618,0.01,1.381,0.028,2.291
			c0.018,0.91,0.028,1.519,0.028,1.827c0.001,2.128-0.603,3.612-1.811,4.454c-1.102,0.773-2.346,1.16-3.733,1.161
			c-0.729,0-1.938-0.188-3.628-0.564c-0.302,0.532-0.639,1.57-1.012,3.115c-0.496,1.957-0.727,3.689-0.689,5.199
			c0.018,0.892,0.312,1.338,0.881,1.338c0.213,0,0.488-0.052,0.826-0.155c2.062-0.705,4.933-2.851,8.611-6.44
			c0.231-0.223,0.462-0.334,0.694-0.334c0.337,0,0.507,0.154,0.507,0.463C199.854,107.78,199.765,107.977,199.587,108.183z
			 M196.459,96.809c0-0.669-0.152-1.003-0.454-1.003c-0.196,0-0.48,0.138-0.854,0.413c-1.742,1.356-3.269,3.733-4.583,7.132
			c0.355,0.051,0.978,0.103,1.868,0.153c1.44,0.051,2.515-0.268,3.226-0.955c0.533-0.515,0.826-1.365,0.879-2.548
			C196.489,100.875,196.461,99.812,196.459,96.809z"/>
		<path fill="#FFFFFF" d="M219.957,96.897c-0.443,0.979-0.949,2.137-1.517,3.476c0.124,0.343,0.523,0.926,1.201,1.75
			c0.124,0.171,0.098,0.343-0.08,0.515c-0.178,0.172-0.418,0.257-0.721,0.258c-0.427,0-0.8-0.188-1.12-0.566
			c-1.172,2.558-2.503,5.158-3.996,7.801c-1.563,2.815-2.681,4.557-3.356,5.227c-0.586,0.566-1.173,0.85-1.76,0.85
			c-0.551,0-1.04-0.214-1.468-0.643c-0.675,0.275-1.164,0.413-1.466,0.413c-0.623,0-1.104-0.522-1.441-1.569
			c-0.465-1.475-0.697-3.577-0.698-6.305c-0.003-3.895,0.342-6.803,1.034-8.725c-0.392,0.343-1.138,1.099-2.239,2.266
			c-0.195,0.206-0.418,0.309-0.666,0.31c-0.339,0-0.507-0.146-0.508-0.438c0-0.155,0.08-0.335,0.239-0.541
			c1.066-1.391,2.461-3.235,4.185-5.536c0.443-0.618,0.906-0.927,1.386-0.928c0.533,0,1.353,0.411,2.455,1.234
			c0.23,0.189,0.348,0.395,0.348,0.618c0,0.429-0.32,0.747-0.96,0.953c-1.563,3.227-2.343,6.856-2.34,10.888
			c0.002,2.076,0.261,3.809,0.777,5.198c0.195,0.549,0.462,0.824,0.801,0.823c0.337,0,0.729-0.292,1.173-0.875
			c1.367-1.837,2.718-4.085,4.05-6.746c1.189-2.385,1.979-4.299,2.37-5.741c-0.231-0.395-0.348-0.917-0.348-1.57
			c-0.001-1.167,0.389-2.719,1.169-4.659c0.338-0.807,0.774-1.21,1.308-1.211c0.302,0,0.924,0.266,1.867,0.797
			c0.462,0.257,0.694,0.601,0.694,1.029C220.33,95.559,220.206,96.108,219.957,96.897z"/>
		<path fill="#FFFFFF" d="M239.242,98.352c-1.633,4.376-2.759,8.049-3.38,11.017c0.268-0.24,0.618-0.609,1.053-1.107
			c0.436-0.498,0.707-0.79,0.813-0.875c0.248-0.31,0.515-0.464,0.8-0.464c0.267,0,0.399,0.128,0.4,0.386
			c0,0.154-0.071,0.334-0.213,0.541c-1.67,2.386-2.78,4.797-3.329,7.234c-0.159,0.686-0.399,1.029-0.72,1.03
			c-0.302,0-0.862-0.274-1.681-0.823c-0.48-0.308-0.756-0.565-0.827-0.771c-0.09-0.188-0.09-0.566-0.001-1.132
			c0.744-4.358,1.675-7.979,2.793-10.863c-1.545,2.421-3.65,5.098-6.315,8.034c-2.328,2.558-4.008,4.189-5.038,4.894
			c-0.746,0.497-1.315,0.747-1.706,0.747c-0.32,0-0.81-0.249-1.469-0.745c-0.942-0.549-1.414-1.303-1.414-2.264
			c0-0.188,0.017-0.403,0.052-0.643c0.318-2.54,1.473-5.496,3.462-8.869c1.989-3.373,4.272-6.219,6.849-8.536
			c0.835-0.755,1.582-1.125,2.24-1.108c0.64,0.034,1.858,0.848,3.656,2.443c0.159,0.137,0.239,0.283,0.239,0.438
			c0,0.274-0.187,0.412-0.56,0.412c-0.143,0-0.276-0.025-0.4-0.077c-1.263-0.514-2.276-0.496-3.041,0.053
			c-1.67,1.185-3.518,3.271-5.543,6.257c-2.345,3.434-3.757,6.523-4.234,9.268c-0.019,0.121-0.026,0.232-0.026,0.335
			c0,0.429,0.178,0.643,0.534,0.643c0.604,0,1.324-0.403,2.159-1.211c1.99-1.871,4.122-4.223,6.396-7.056
			c2.327-2.936,3.82-5.15,4.478-6.643c0.479-1.098,0.789-1.87,0.932-2.317c0.229-0.772,0.479-1.158,0.745-1.158
			c0.267,0,0.89,0.351,1.868,1.054c0.409,0.292,0.631,0.558,0.667,0.797C239.518,97.476,239.438,97.837,239.242,98.352z"/>
		<path fill="#FFFFFF" d="M77.578,153.771c-0.035,1.527-0.416,3.551-1.143,6.074c-1.153,3.981-2.787,7.071-4.901,9.269
			c-1.12,1.167-2.364,1.751-3.733,1.752c-0.533,0-1.218-0.111-2.054-0.333c-1.671-0.102-3.032-0.607-4.082-1.516
			c-1.139-0.995-1.673-2.272-1.603-3.834c0.069-1.818,0.717-4.358,1.942-7.619c1.349-3.553,2.752-6.109,4.208-7.672
			c0.693-0.755,1.262-1.133,1.707-1.134c0.604,0,1.583,0.6,2.935,1.8c0.374-0.172,1.138-0.49,2.293-0.954
			c0.587-0.189,1.031-0.284,1.333-0.284c0.694,0,1.467,0.625,2.322,1.877C77.354,151.969,77.613,152.828,77.578,153.771z
			 M74.511,154.519c0.123-1.149,0.185-1.879,0.185-2.188c0-0.721-0.232-1.081-0.694-1.081c-0.178,0-0.409,0.035-0.693,0.104
			l-4.133,1.625c-0.48,0.189-0.756,0.283-0.827,0.283c-0.142,0-0.284-0.163-0.427-0.489c-1.03,1.219-1.989,2.979-2.876,5.278
			c-0.692,1.802-1.171,3.416-1.437,4.839c-0.195,0.961-0.292,1.837-0.292,2.626c0.001,2.642,0.847,3.928,2.537,3.858
			c0.675-0.018,1.404-0.275,2.187-0.773c1.493-0.979,2.887-2.936,4.184-5.871C73.466,159.967,74.229,157.23,74.511,154.519z
			 M80.504,141.698c-0.604,0.705-1.369,1.485-2.292,2.344c-1.049,0.944-1.688,1.399-1.919,1.365
			c-0.818-0.17-1.966-1.054-3.443-2.648c-0.872-0.771-1.69-1.225-2.455-1.362c-0.463-0.137-1.476,0.619-3.04,2.267
			c0,0.378-0.133,0.566-0.399,0.567c-0.231,0-0.462-0.137-0.693-0.411c-0.499-0.566-0.65-0.969-0.455-1.21
			c0.586-0.721,1.359-1.52,2.319-2.395c1.048-0.944,1.697-1.391,1.946-1.339c0.782,0.137,1.93,1.028,3.442,2.674
			c0.747,0.669,1.548,1.123,2.401,1.363c0.569,0.12,1.591-0.653,3.066-2.318c0.018-0.36,0.168-0.541,0.453-0.541
			c0.231,0,0.462,0.129,0.694,0.386c0.374,0.463,0.561,0.746,0.561,0.849C80.69,141.407,80.627,141.544,80.504,141.698z"/>
		<path fill="#FFFFFF" d="M99.721,160.885c-1.066,1.563-2.451,3.828-4.156,6.797c-0.32,0.772-0.631,1.544-0.932,2.317
			c-0.249,0.531-0.578,0.798-0.986,0.798c-0.32,0-0.792-0.128-1.414-0.385c-0.694-0.274-1.041-0.548-1.041-0.823
			c0-0.12,0.115-0.386,0.346-0.798c1.154-2.265,2.184-5.088,3.088-8.469c0.975-3.552,1.391-6.263,1.248-8.134
			c-0.036-0.754-0.214-1.132-0.534-1.132c-0.231,0-0.578,0.215-1.04,0.645c-4.478,4.223-8.351,9.871-11.618,16.942
			c-0.409,0.875-0.888,1.313-1.439,1.313c-0.392,0-1.041-0.214-1.948-0.643c-0.356-0.154-0.542-0.299-0.561-0.437
			c0-0.068,0.097-0.309,0.293-0.72c1.029-2.18,2.05-4.943,3.062-8.289c1.081-3.621,1.693-6.444,1.834-8.469
			c0.035-0.618,0.017-0.926-0.054-0.926c-0.018,0-0.267,0.232-0.747,0.695c-0.479,0.464-1.146,1.065-1.999,1.803
			c-0.16,0.154-0.338,0.231-0.533,0.232c-0.25,0-0.374-0.094-0.374-0.283c0-0.137,0.088-0.292,0.266-0.463
			c0.764-0.944,1.768-2.121,3.012-3.528c0.267-0.292,0.542-0.438,0.826-0.438c0.427,0,0.801,0.3,1.121,0.9
			c1.44,0.411,2.117,1.045,2.028,1.904c-0.194,1.887-1.196,5.293-3.007,10.219c1.19-2.214,2.921-4.69,5.196-7.429
			c2.274-2.738,3.962-4.356,5.064-4.854c0.551-0.241,0.942-0.361,1.174-0.361c0.231,0,0.604,0.189,1.121,0.566
			c1.476,0.497,2.206,1.32,2.188,2.469c0.001,1.201-0.3,3.131-0.903,5.791c-0.478,2.197-0.922,3.904-1.33,5.123
			c0.515-0.635,1.172-1.459,1.972-2.472c0.142-0.171,0.284-0.257,0.427-0.257c0.267,0,0.4,0.163,0.4,0.488
			C99.774,160.679,99.757,160.782,99.721,160.885z"/>
		<path fill="#FFFFFF" d="M122.66,160.871c-1.066,1.562-2.451,3.828-4.156,6.797c-0.32,0.772-0.631,1.544-0.932,2.317
			c-0.249,0.531-0.578,0.798-0.986,0.798c-0.32,0-0.792-0.128-1.414-0.385c-0.694-0.274-1.041-0.548-1.041-0.823
			c0-0.12,0.115-0.386,0.346-0.798c1.154-2.266,2.184-5.088,3.088-8.469c0.975-3.552,1.391-6.263,1.248-8.134
			c-0.036-0.754-0.214-1.132-0.534-1.132c-0.231,0-0.578,0.215-1.04,0.644c-4.478,4.224-8.351,9.871-11.618,16.942
			c-0.409,0.875-0.888,1.313-1.439,1.313c-0.392,0-1.041-0.214-1.948-0.643c-0.356-0.154-0.542-0.299-0.561-0.437
			c0-0.068,0.097-0.309,0.293-0.721c1.029-2.18,2.05-4.942,3.062-8.289c1.081-3.621,1.693-6.444,1.834-8.469
			c0.035-0.618,0.017-0.926-0.054-0.926c-0.018,0-0.267,0.231-0.747,0.695c-0.479,0.464-1.146,1.065-1.999,1.803
			c-0.16,0.154-0.338,0.231-0.533,0.231c-0.25,0-0.374-0.094-0.374-0.283c0-0.137,0.088-0.292,0.266-0.463
			c0.764-0.944,1.768-2.12,3.012-3.528c0.267-0.292,0.542-0.438,0.826-0.438c0.427,0,0.801,0.3,1.121,0.9
			c1.44,0.411,2.117,1.045,2.028,1.903c-0.194,1.888-1.196,5.294-3.007,10.219c1.19-2.214,2.921-4.69,5.196-7.429
			c2.274-2.738,3.962-4.355,5.064-4.854c0.551-0.241,0.942-0.361,1.174-0.361c0.231,0,0.604,0.188,1.121,0.566
			c1.476,0.497,2.206,1.32,2.188,2.469c0.001,1.201-0.3,3.131-0.903,5.791c-0.478,2.197-0.922,3.904-1.33,5.123
			c0.515-0.635,1.172-1.459,1.972-2.472c0.142-0.171,0.284-0.257,0.427-0.257c0.267,0,0.4,0.163,0.4,0.488
			C122.713,160.665,122.695,160.768,122.66,160.871z"/>
		<path fill="#FFFFFF" d="M132.87,152.525c-0.425,2.316-1.534,6.169-3.326,11.558c0.515-0.446,1.226-1.262,2.132-2.446
			c0.124-0.154,0.249-0.231,0.373-0.231c0.284,0,0.32,0.24,0.107,0.72c-0.089,0.189-0.835,1.365-2.238,3.527
			c-1.066,1.648-1.848,3.107-2.344,4.377c-0.16,0.395-0.453,0.592-0.879,0.592c-0.427,0-1.005-0.197-1.734-0.591
			c-0.463-0.24-0.694-0.42-0.694-0.54c0-0.103,0.097-0.326,0.293-0.669c0.959-1.631,2.024-4.359,3.195-8.187
			c1.117-3.707,1.746-6.46,1.888-8.262c0.053-0.772-0.028-1.158-0.241-1.158c-0.16,0-0.444,0.189-0.853,0.567l-1.652,1.494
			c-0.586,0.515-0.88,0.542-0.88,0.078c0-0.137,0.08-0.309,0.24-0.515c0.834-1.133,1.722-2.206,2.665-3.219
			c0.284-0.292,0.56-0.438,0.827-0.438c0.284,0,0.703,0.188,1.254,0.565c0.818,0.206,1.271,0.333,1.361,0.385
			c0.409,0.241,0.614,0.686,0.614,1.338C132.976,151.779,132.94,152.13,132.87,152.525z M136.623,141.25
			c0.284,0.206,0.427,0.437,0.427,0.694c0,0.498-0.764,1.271-2.292,2.318c-1.013,0.669-1.991,0.911-2.934,0.723
			c-0.533-0.103-0.996-0.291-1.387-0.565c-0.125-0.103-0.219-0.21-0.281-0.322c-0.063-0.111-0.076-0.201-0.04-0.27
			c0.054-0.068,0.16-0.085,0.32-0.051c1.635-1.374,2.709-2.361,3.225-2.962c0.409-0.446,0.702-0.669,0.88-0.669
			C134.862,140.145,135.555,140.514,136.623,141.25z"/>
		<path fill="#FFFFFF" d="M150.81,137.175c0.499,0.257,0.748,0.549,0.748,0.875c0,0.223-0.169,0.334-0.507,0.334
			c-0.071,0-0.183-0.012-0.333-0.038c-0.151-0.025-0.262-0.039-0.333-0.039c-0.676,0-1.493,0.713-2.452,2.138
			c-0.853,1.271-2.033,4.033-3.542,8.289c-0.143,0.378-0.196,0.602-0.16,0.67c0.053,0.12,0.284,0.188,0.693,0.205
			c1.049,0.085,2.454,0.05,4.214-0.106c0.604-0.052,0.907,0.197,0.907,0.746c0,0.377-0.23,0.609-0.693,0.695
			c-0.374,0.052-2.338,0.208-5.894,0.467c-2.13,6.023-3.425,11.12-3.884,15.29c-0.017,0.223-0.026,0.42-0.026,0.592
			c0,0.583,0.151,0.875,0.454,0.875c0.48,0,1.929-1.125,4.346-3.375c0.284-0.274,0.56-0.412,0.827-0.412
			c0.231,0,0.374,0.094,0.427,0.283c0.054,0.206-0.026,0.446-0.24,0.721c-1.439,1.837-2.852,3.399-4.237,4.687
			c-0.586,0.532-1.076,0.798-1.467,0.799c-0.391,0-0.996-0.3-1.814-0.899c-1.014-0.257-1.521-0.771-1.521-1.543
			c0-0.12,0.017-0.257,0.053-0.412c0.655-4.427,1.94-9.875,3.856-16.345c-0.943-0.119-1.796-0.239-2.561-0.359
			c-0.338-0.051-0.507-0.257-0.507-0.617c0-0.395,0.177-0.635,0.533-0.721c0.355-0.085,1.013-0.274,1.973-0.567
			c0.586-0.189,1.155-0.447,1.707-0.774c1.898-5.68,3.389-9.361,4.473-11.043c0.622-0.961,1.288-1.442,2-1.442
			C148.524,136.147,149.511,136.49,150.81,137.175z"/>
		<path fill="#FFFFFF" d="M169.769,130.06c0.231,0.171,0.347,0.351,0.347,0.54c0,0.326-0.204,0.489-0.613,0.489
			c-0.178,0-0.365-0.051-0.56-0.154c-0.818-0.394-1.432-0.591-1.841-0.591c-1.12,0.001-2.347,1.048-3.679,3.143
			c-4.832,7.604-8.266,17.429-10.302,29.475c-0.054,0.326-0.142,0.764-0.266,1.313c0.409-0.412,1.013-1.082,1.813-2.008
			c0.461-0.532,0.8-0.798,1.013-0.799c0.462,0,0.498,0.266,0.107,0.798c-1.706,2.352-2.833,4.814-3.382,7.389
			c-0.196,0.635-0.444,0.952-0.746,0.953c-0.143,0-0.329-0.077-0.56-0.231c-0.907-0.582-1.424-0.926-1.548-1.028
			c-0.356-0.343-0.534-0.789-0.535-1.338c0-0.274,0.044-0.609,0.133-1.004c2.055-10.931,4.707-20.24,7.956-27.929
			c2.45-5.801,4.643-9.56,6.581-11.277c0.533-0.48,1.066-0.712,1.6-0.696c0.48,0.017,1.103,0.308,1.868,0.874
			C168.025,128.662,168.897,129.356,169.769,130.06z"/>
		<path fill="#FFFFFF" d="M179.226,151.337c-2.362,4.24-4.127,9.217-5.297,14.931c0.497-0.84,1.101-1.913,1.812-3.218
			c0.089-0.24,0.231-0.36,0.427-0.361c0.267,0,0.4,0.163,0.4,0.489c0,0.103-0.026,0.215-0.08,0.335
			c-1.137,2.505-1.882,4.436-2.236,5.792c-0.213,0.858-0.497,1.287-0.853,1.287c-0.356,0-1.05-0.334-2.082-1.002
			c-0.551-0.377-0.739-1.046-0.561-2.008c0.744-3.741,1.64-6.992,2.687-9.755c-3.429,5.39-6.306,9.363-8.634,11.921
			c-0.516,0.566-1.076,0.85-1.68,0.851c-0.498,0-1.085-0.197-1.761-0.591c-1.227-0.206-1.841-0.823-1.842-1.852
			c0-0.188,0.018-0.395,0.053-0.618c0.441-4.907,1.363-8.983,2.766-12.226c-0.302,0.274-0.756,0.678-1.359,1.21
			c-0.231,0.189-0.409,0.241-0.534,0.155c-0.143-0.103-0.116-0.3,0.08-0.592c0.959-1.356,1.528-2.249,1.705-2.678
			c0.55-1.339,1.127-2.377,1.732-3.116c0.319-0.377,0.657-0.566,1.013-0.566c0.48,0,1.183,0.274,2.107,0.822
			c0.25,0.154,0.374,0.309,0.374,0.463l-0.586,0.85c-0.888,1.304-1.829,3.604-2.822,6.898c-1.083,3.57-1.632,6.479-1.648,8.726
			c0,0.738,0.161,1.106,0.481,1.106c0.284,0,0.747-0.318,1.387-0.953c1.368-1.408,3.349-4.068,5.942-7.982
			c2.292-3.45,3.677-5.699,4.157-6.745c0.799-1.75,1.447-2.781,1.944-3.09c0.32-0.206,0.604-0.31,0.854-0.31
			c0.249,0,0.729,0.18,1.44,0.54c0.711,0.36,1.067,0.626,1.067,0.797c0,0.051-0.063,0.12-0.187,0.206
			C179.368,151.14,179.279,151.234,179.226,151.337z"/>
		<path fill="#FFFFFF" d="M188.944,164.147c0.055,2.059-1.127,3.467-3.544,4.223c-0.302,0.721-0.586,1.219-0.853,1.493
			c-0.41,0.413-1.013,0.653-1.813,0.722c-0.516,0.034-1.067,0.009-1.654-0.076c-1.049-0.154-2.338-0.342-3.868-0.563
			c-0.427-0.068-0.685-0.317-0.774-0.746c0.071-0.463,0.569-0.738,1.493-0.825c1.263-0.086,3.129-0.302,5.601-0.646
			c0.924-0.207,1.582-0.713,1.973-1.52c0.23-0.412,0.346-0.918,0.345-1.519c0-1.081-0.562-2.985-1.684-5.712
			c-1.104-2.659-1.621-4.434-1.551-5.327c0.141-2.145,2.194-3.639,6.158-4.482c0.391-0.086,0.587,0.051,0.587,0.411
			c0,0.206-0.142,0.369-0.426,0.489c-1.92,0.808-2.88,1.803-2.879,2.987c0,0.463,0.089,1.042,0.268,1.737s0.713,2.363,1.604,5.005
			C188.586,161.703,188.925,163.153,188.944,164.147z M193.201,149.373c0,0.772-0.212,2.007-0.638,3.707
			c-0.16,0.583-0.337,0.961-0.533,1.132c-0.089,0.086-0.391,0.215-0.907,0.386c-0.658,0.241-1.066,0.361-1.227,0.361
			c-0.267,0-0.4-0.17-0.4-0.514c0-0.188,0.035-0.438,0.106-0.746c0.425-1.699,0.589-2.879,0.491-3.54
			c-0.099-0.66,0.101-1.076,0.599-1.249c0.871-0.429,1.431-0.645,1.68-0.645C192.924,148.266,193.201,148.635,193.201,149.373z"/>
		<path fill="#FFFFFF" d="M208.983,137.137c0.498,0.257,0.746,0.549,0.746,0.875c0,0.223-0.167,0.334-0.505,0.335
			c-0.072,0-0.184-0.013-0.334-0.039c-0.151-0.025-0.263-0.039-0.335-0.039c-0.676,0-1.491,0.713-2.451,2.138
			c-0.853,1.271-2.033,4.033-3.542,8.289c-0.142,0.378-0.195,0.602-0.159,0.67c0.053,0.12,0.284,0.188,0.693,0.205
			c1.049,0.085,2.454,0.05,4.215-0.106c0.604-0.052,0.907,0.197,0.907,0.746c0,0.377-0.232,0.609-0.693,0.695
			c-0.373,0.052-2.338,0.208-5.895,0.467c-2.129,6.023-3.424,11.12-3.884,15.29c-0.017,0.223-0.026,0.42-0.026,0.592
			c0,0.583,0.151,0.875,0.454,0.875c0.48,0,1.929-1.125,4.346-3.375c0.284-0.274,0.56-0.412,0.826-0.412
			c0.231,0,0.374,0.094,0.428,0.283c0.053,0.206-0.026,0.446-0.24,0.721c-1.438,1.837-2.852,3.399-4.237,4.687
			c-0.586,0.532-1.076,0.798-1.467,0.799c-0.391,0-0.996-0.3-1.814-0.899c-1.014-0.257-1.521-0.771-1.521-1.543
			c0-0.12,0.017-0.257,0.053-0.412c0.655-4.427,1.94-9.875,3.856-16.345c-0.943-0.119-1.796-0.239-2.561-0.359
			c-0.338-0.051-0.507-0.257-0.507-0.617c0-0.395,0.177-0.635,0.533-0.721c0.355-0.085,1.013-0.274,1.973-0.567
			c0.586-0.189,1.155-0.447,1.707-0.774c1.898-5.68,3.39-9.361,4.473-11.043c0.622-0.961,1.288-1.442,2-1.442
			C206.697,136.109,207.684,136.452,208.983,137.137z"/>
		<path fill="#FFFFFF" d="M231.443,139.49c0.002,1.665-1.393,4.471-4.182,8.419c-2.47,3.485-5.081,6.617-7.835,9.399
			c0.141-0.034,0.666-0.207,1.572-0.516c0.782-0.274,1.243-0.413,1.386-0.413c0.498,0,0.749,0.24,0.749,0.72
			c0,0.343-0.232,0.592-0.693,0.747c-2.933,0.998-4.951,1.985-6.053,2.964c-0.392,0.327-0.729,0.489-1.013,0.489
			c-0.551,0-1.112-0.797-1.684-2.392c-0.035-0.103-0.053-0.197-0.053-0.283c0-0.309,0.507-0.867,1.521-1.674
			c2.646-2.095,5.25-4.825,7.809-8.19c2.753-3.621,4.228-6.445,4.422-8.47c0.177-1.716-0.66-2.574-2.51-2.572
			c-0.516,0-1.021,0.104-1.52,0.31c-3.911,1.598-7.278,3.985-10.104,7.161c-0.249,0.275-0.372,0.592-0.372,0.953
			c0,0.206,0.043,0.472,0.134,0.798c0.088,0.326,0.133,0.557,0.133,0.694c0,0.412-0.229,0.618-0.692,0.618
			c-0.391,0-0.782-0.222-1.175-0.668c-1.175-1.389-1.762-2.315-1.762-2.779c0-0.463,0.31-0.995,0.933-1.596
			c4.157-4.052,8.06-6.713,11.703-7.986c0.871-0.292,1.602-0.438,2.188-0.438c0.996-0.001,2.063,0.745,3.203,2.236
			c0.959,0.154,1.805,0.437,2.533,0.848C230.988,138.35,231.443,138.89,231.443,139.49z M218.339,166.188
			c0.373,0.257,0.56,0.531,0.56,0.823c0,0.429-0.78,1.313-2.344,2.652c-0.926,0.772-1.653,1.159-2.187,1.159
			c-0.232,0-1.185-0.385-2.854-1.156c-0.143-0.052-0.25-0.142-0.32-0.271c-0.073-0.128-0.081-0.236-0.028-0.322
			c0.07-0.103,0.205-0.137,0.4-0.104c0.906-0.772,2.069-1.862,3.492-3.271c0.408-0.498,0.737-0.747,0.985-0.747
			C216.398,164.954,217.165,165.365,218.339,166.188z"/>
	</g>
</g>
</svg>
