<?xml version="1.0" encoding="utf-8"?>
<!-- Generator: Adobe Illustrator 16.0.0, SVG Export Plug-In . SVG Version: 6.00 Build 0)  -->
<!DOCTYPE svg PUBLIC "-//W3C//DTD SVG 1.1//EN" "http://www.w3.org/Graphics/SVG/1.1/DTD/svg11.dtd">
<svg version="1.1" id="Layer_1" xmlns="http://www.w3.org/2000/svg" xmlns:xlink="http://www.w3.org/1999/xlink" x="0px" y="0px"
	 width="300px" height="200px" viewBox="0 0 300 200" enable-background="new 0 0 300 200" xml:space="preserve">
<path fill="#7F7F7F" d="M291.5,164c0,13.807-11.192,25-25,25h-233c-13.807,0-25-11.193-25-25V36c0-13.807,11.193-25,25-25h233
	c13.808,0,25,11.193,25,25V164z"/>
<ellipse fill="#7F7F7F" cx="149.667" cy="99.304" rx="144.667" ry="95.25"/>
<g>
	<path fill="#FFFFFF" d="M104.596,56.204c0.053,1.982-1.086,3.338-3.418,4.066c-0.291,0.694-0.565,1.174-0.822,1.438
		c-0.395,0.396-0.977,0.628-1.749,0.695c-0.498,0.034-1.029,0.009-1.595-0.073c-1.012-0.147-2.255-0.329-3.73-0.543
		c-0.412-0.065-0.66-0.305-0.747-0.718c0.068-0.446,0.548-0.71,1.44-0.794c1.218-0.083,3.018-0.291,5.402-0.623
		c0.891-0.199,1.525-0.687,1.902-1.463c0.222-0.397,0.334-0.884,0.333-1.463c-0.001-1.041-0.542-2.874-1.625-5.5
		c-1.065-2.56-1.563-4.27-1.496-5.129c0.136-2.065,2.116-3.504,5.939-4.316c0.377-0.083,0.566,0.049,0.566,0.396
		c0,0.198-0.137,0.355-0.411,0.471c-1.852,0.778-2.777,1.737-2.776,2.877c0,0.446,0.086,1.004,0.258,1.673
		c0.172,0.668,0.688,2.276,1.547,4.819C104.251,53.85,104.579,55.246,104.596,56.204z M108.703,41.976
		c0,0.744-0.205,1.933-0.615,3.569c-0.154,0.562-0.325,0.925-0.513,1.09c-0.086,0.083-0.377,0.207-0.875,0.372
		c-0.634,0.232-1.028,0.348-1.183,0.348c-0.257,0-0.386-0.165-0.386-0.496c0-0.182,0.034-0.421,0.102-0.719
		c0.411-1.636,0.568-2.771,0.474-3.408c-0.095-0.636,0.098-1.037,0.578-1.203c0.84-0.413,1.38-0.621,1.621-0.621
		C108.436,40.91,108.702,41.266,108.703,41.976z"/>
	<path fill="#FFFFFF" d="M125.89,46.128c-0.034,1.471-0.401,3.42-1.103,5.849c-1.112,3.834-2.688,6.809-4.727,8.925
		c-1.08,1.124-2.28,1.687-3.6,1.687c-0.515,0-1.175-0.106-1.981-0.32c-1.612-0.098-2.925-0.584-3.937-1.46
		c-1.099-0.957-1.613-2.188-1.546-3.692c0.067-1.751,0.692-4.197,1.873-7.336c1.301-3.421,2.654-5.884,4.06-7.388
		c0.668-0.727,1.217-1.091,1.646-1.091c0.583,0,1.527,0.577,2.831,1.733c0.36-0.165,1.097-0.472,2.211-0.918
		c0.566-0.182,0.995-0.273,1.286-0.273c0.669,0,1.416,0.603,2.239,1.808C125.673,44.394,125.923,45.22,125.89,46.128z
		 M122.932,46.849c0.119-1.107,0.179-1.809,0.179-2.106c0-0.694-0.224-1.041-0.669-1.041c-0.172,0-0.395,0.034-0.669,0.1
		l-3.986,1.564c-0.463,0.182-0.729,0.273-0.797,0.273c-0.137,0-0.274-0.157-0.412-0.471c-0.994,1.174-1.919,2.868-2.775,5.083
		c-0.667,1.735-1.13,3.289-1.386,4.66c-0.188,0.926-0.281,1.768-0.281,2.528c0.002,2.544,0.817,3.783,2.446,3.716
		c0.651-0.017,1.354-0.265,2.109-0.745c1.44-0.943,2.785-2.827,4.035-5.653C121.923,52.095,122.659,49.46,122.932,46.849z"/>
	<path fill="#FFFFFF" d="M144.231,46.117c-0.034,1.471-0.401,3.42-1.103,5.849c-1.112,3.834-2.688,6.809-4.727,8.925
		c-1.08,1.125-2.28,1.687-3.6,1.688c-0.515,0-1.175-0.106-1.981-0.32c-1.612-0.098-2.925-0.584-3.937-1.46
		c-1.099-0.958-1.613-2.188-1.546-3.692c0.067-1.751,0.692-4.197,1.873-7.337c1.301-3.42,2.654-5.883,4.06-7.388
		c0.668-0.728,1.217-1.091,1.646-1.091c0.583,0,1.527,0.577,2.831,1.732c0.36-0.165,1.097-0.471,2.211-0.918
		c0.566-0.182,0.995-0.273,1.286-0.273c0.669,0,1.416,0.603,2.239,1.808C144.015,44.382,144.265,45.208,144.231,46.117z
		 M141.273,46.837c0.119-1.107,0.179-1.809,0.179-2.106c0-0.694-0.224-1.041-0.669-1.041c-0.172,0-0.395,0.034-0.669,0.1
		l-3.986,1.563c-0.463,0.183-0.729,0.273-0.797,0.273c-0.137,0-0.274-0.156-0.412-0.471c-0.994,1.174-1.919,2.868-2.775,5.083
		c-0.667,1.735-1.13,3.289-1.386,4.66c-0.188,0.926-0.281,1.769-0.281,2.528c0.002,2.544,0.817,3.783,2.446,3.716
		c0.651-0.017,1.354-0.265,2.109-0.745c1.44-0.943,2.785-2.827,4.035-5.653C140.264,52.083,141,49.448,141.273,46.837z"/>
	<path fill="#FFFFFF" d="M163.677,43.874c-0.428,0.942-0.916,2.058-1.464,3.347c0.12,0.33,0.506,0.892,1.159,1.684
		c0.12,0.166,0.094,0.331-0.077,0.496c-0.172,0.166-0.403,0.249-0.695,0.249c-0.412,0-0.771-0.181-1.081-0.544
		c-1.13,2.462-2.415,4.967-3.854,7.512c-1.507,2.711-2.587,4.388-3.238,5.033c-0.565,0.546-1.131,0.818-1.697,0.819
		c-0.532,0-1.003-0.206-1.416-0.618c-0.651,0.264-1.123,0.397-1.414,0.397c-0.601,0-1.064-0.503-1.39-1.511
		c-0.447-1.421-0.671-3.444-0.673-6.072c-0.002-3.75,0.33-6.551,0.998-8.402c-0.377,0.332-1.097,1.059-2.16,2.183
		c-0.188,0.199-0.403,0.298-0.643,0.298c-0.326,0-0.489-0.14-0.489-0.421c0-0.148,0.077-0.322,0.231-0.521
		c1.028-1.339,2.373-3.116,4.036-5.331c0.428-0.595,0.874-0.893,1.337-0.893c0.515,0,1.303,0.396,2.367,1.188
		c0.223,0.182,0.335,0.38,0.335,0.595c0,0.413-0.308,0.719-0.926,0.917c-1.507,3.107-2.259,6.602-2.256,10.484
		c0.001,2,0.251,3.668,0.75,5.006c0.189,0.529,0.446,0.792,0.772,0.792s0.703-0.281,1.131-0.843c1.32-1.769,2.622-3.934,3.906-6.496
		c1.147-2.297,1.909-4.14,2.286-5.528c-0.223-0.38-0.335-0.883-0.335-1.511c-0.001-1.124,0.375-2.619,1.129-4.487
		c0.325-0.776,0.745-1.165,1.26-1.166c0.292,0,0.892,0.256,1.801,0.767c0.446,0.248,0.669,0.578,0.67,0.991
		C164.037,42.584,163.917,43.113,163.677,43.874z"/>
	<path fill="#FFFFFF" d="M171.601,44.934c-0.41,2.231-1.479,5.941-3.208,11.13c0.497-0.43,1.182-1.215,2.057-2.355
		c0.12-0.149,0.239-0.224,0.359-0.224c0.274,0,0.309,0.231,0.104,0.694c-0.085,0.182-0.805,1.314-2.158,3.397
		c-1.028,1.586-1.782,2.991-2.261,4.214c-0.154,0.38-0.437,0.57-0.848,0.57c-0.412,0-0.969-0.189-1.673-0.569
		c-0.446-0.23-0.668-0.404-0.669-0.52c0-0.099,0.094-0.313,0.283-0.645c0.925-1.57,1.952-4.198,3.081-7.883
		c1.078-3.569,1.685-6.222,1.821-7.957c0.051-0.744-0.026-1.115-0.232-1.115c-0.154,0-0.429,0.182-0.823,0.545l-1.594,1.438
		c-0.565,0.496-0.848,0.521-0.849,0.075c0-0.132,0.077-0.298,0.231-0.496c0.805-1.091,1.662-2.124,2.57-3.1
		c0.274-0.281,0.541-0.422,0.798-0.422c0.274,0,0.677,0.182,1.209,0.545c0.789,0.197,1.226,0.321,1.312,0.371
		c0.395,0.231,0.592,0.661,0.593,1.288C171.703,44.215,171.669,44.554,171.601,44.934z M175.221,34.077
		c0.274,0.198,0.412,0.421,0.412,0.669c0,0.479-0.737,1.223-2.211,2.232c-0.977,0.645-1.92,0.877-2.829,0.695
		c-0.515-0.099-0.961-0.28-1.338-0.544c-0.12-0.099-0.21-0.202-0.27-0.309s-0.073-0.194-0.039-0.26
		c0.051-0.066,0.154-0.083,0.309-0.05c1.577-1.323,2.614-2.273,3.111-2.852c0.395-0.43,0.677-0.645,0.849-0.645
		C173.522,33.012,174.191,33.367,175.221,34.077z"/>
	<path fill="#FFFFFF" d="M206.082,23.301c0.206,0.148,0.309,0.314,0.309,0.496c0,0.314-0.205,0.471-0.616,0.471
		c-0.154,0-0.317-0.041-0.489-0.124c-0.807-0.379-1.406-0.569-1.801-0.568c-1.063,0-2.237,1.009-3.522,3.025
		c-4.711,7.422-8.143,17.304-10.295,29.647c0.446-0.413,1.045-1.058,1.8-1.934c0.445-0.513,0.771-0.769,0.977-0.77
		c0.463,0,0.506,0.256,0.129,0.769c-1.645,2.198-2.733,4.57-3.262,7.115c-0.206,0.611-0.462,0.917-0.771,0.917
		c-0.154,0-0.343-0.074-0.566-0.223c-0.858-0.561-1.338-0.892-1.441-0.991c-0.343-0.313-0.515-0.734-0.516-1.263
		c0-0.281,0.043-0.611,0.128-0.991c0.735-3.817,1.342-6.659,1.82-8.527c-1.679,2.331-3.577,4.658-5.693,6.98
		c-2.117,2.323-3.655,3.791-4.615,4.402c-0.737,0.479-1.286,0.72-1.646,0.72c-0.309,0-0.78-0.239-1.415-0.718
		c-1.116-0.659-1.673-1.428-1.674-2.304c0-0.148,0.017-0.313,0.051-0.496c0.358-2.461,1.501-5.317,3.428-8.564
		c1.927-3.248,4.133-5.979,6.618-8.195c0.806-0.728,1.526-1.083,2.161-1.067c0.668,0.033,1.861,0.817,3.577,2.352
		c0.154,0.132,0.232,0.272,0.232,0.421c0,0.264-0.18,0.396-0.541,0.397c-0.12,0-0.249-0.025-0.386-0.075
		c-1.201-0.495-2.178-0.478-2.933,0.052c-1.611,1.158-3.385,3.167-5.32,6.026c-2.245,3.306-3.563,6.281-3.956,8.924
		c-0.086,0.629,0.086,0.942,0.515,0.942c0.566,0,1.26-0.389,2.083-1.166c1.903-1.802,3.95-4.067,6.144-6.794
		c2.245-2.827,3.684-4.959,4.317-6.397c0.359-0.793,0.642-1.553,0.847-2.281c1.78-6.081,3.765-11.278,5.958-15.592
		c1.712-3.372,3.22-5.636,4.523-6.793c0.479-0.446,0.942-0.669,1.389-0.67c0.479,0,1.098,0.272,1.853,0.817
		C204.34,21.948,205.207,22.624,206.082,23.301z"/>
	<path fill="#FFFFFF" d="M61.904,108.679c0.053,1.982-1.086,3.338-3.418,4.066c-0.291,0.694-0.565,1.173-0.822,1.438
		c-0.395,0.396-0.977,0.628-1.749,0.695c-0.498,0.034-1.029,0.009-1.595-0.073c-1.012-0.148-2.255-0.329-3.73-0.543
		c-0.412-0.065-0.66-0.305-0.747-0.718c0.069-0.446,0.548-0.711,1.44-0.794c1.218-0.083,3.018-0.291,5.402-0.623
		c0.891-0.199,1.525-0.687,1.902-1.464c0.223-0.396,0.334-0.884,0.333-1.462c0-1.041-0.542-2.874-1.625-5.5
		c-1.065-2.56-1.563-4.27-1.496-5.129c0.136-2.065,2.116-3.504,5.939-4.316c0.377-0.083,0.566,0.049,0.566,0.396
		c0,0.198-0.137,0.356-0.412,0.471C60.043,95.9,59.119,96.859,59.119,98c0,0.446,0.086,1.004,0.258,1.672
		c0.172,0.669,0.688,2.276,1.546,4.819C61.56,106.325,61.887,107.721,61.904,108.679z M66.011,94.451
		c0,0.744-0.205,1.933-0.615,3.569c-0.154,0.562-0.325,0.926-0.513,1.091c-0.086,0.083-0.377,0.207-0.875,0.372
		c-0.634,0.232-1.028,0.348-1.183,0.348c-0.257,0-0.386-0.165-0.386-0.496c0-0.182,0.034-0.421,0.102-0.719
		c0.411-1.636,0.568-2.772,0.474-3.408s0.098-1.037,0.578-1.203c0.84-0.413,1.38-0.621,1.621-0.621
		C65.744,93.385,66.01,93.741,66.011,94.451z"/>
	<path fill="#FFFFFF" d="M86.309,96.321c-2.278,4.083-3.981,8.875-5.109,14.377c0.479-0.809,1.063-1.842,1.748-3.099
		c0.085-0.231,0.222-0.347,0.411-0.348c0.257,0,0.386,0.157,0.386,0.471c0,0.099-0.026,0.207-0.077,0.322
		c-1.096,2.413-1.815,4.272-2.158,5.578c-0.205,0.826-0.479,1.239-0.822,1.239c-0.343,0-1.012-0.321-2.007-0.965
		c-0.532-0.363-0.713-1.007-0.542-1.933c0.718-3.602,1.582-6.733,2.592-9.394c-3.307,5.19-6.082,9.017-8.327,11.479
		c-0.497,0.546-1.037,0.818-1.62,0.819c-0.48,0-1.046-0.189-1.698-0.569c-1.183-0.197-1.775-0.792-1.776-1.783
		c0-0.182,0.017-0.38,0.051-0.595c0.425-4.725,1.315-8.65,2.667-11.773c-0.292,0.265-0.729,0.653-1.311,1.166
		c-0.223,0.182-0.395,0.231-0.515,0.149c-0.137-0.099-0.112-0.289,0.077-0.57c0.926-1.306,1.473-2.165,1.645-2.579
		c0.53-1.289,1.087-2.289,1.67-3c0.308-0.363,0.634-0.545,0.977-0.545c0.463,0,1.141,0.263,2.033,0.792
		c0.24,0.148,0.36,0.297,0.36,0.446l-0.565,0.817c-0.857,1.257-1.764,3.471-2.723,6.644c-1.043,3.437-1.573,6.238-1.589,8.402
		c0,0.71,0.155,1.065,0.463,1.065c0.274,0,0.72-0.306,1.337-0.917c1.319-1.356,3.23-3.918,5.731-7.687
		c2.21-3.322,3.547-5.487,4.009-6.496c0.771-1.686,1.396-2.677,1.876-2.975c0.309-0.198,0.582-0.298,0.823-0.298
		c0.24,0,0.703,0.173,1.39,0.52c0.686,0.346,1.029,0.603,1.029,0.768c0,0.05-0.061,0.116-0.18,0.198
		C86.446,96.131,86.36,96.222,86.309,96.321z M79.227,85.521c0.052,0.678-0.23,1.776-0.847,3.296
		c-0.565,1.422-0.976,2.132-1.233,2.132c-0.206,0-0.446-0.144-0.72-0.433c-0.275-0.289-0.43-0.533-0.464-0.731
		c0-0.214,0.051-0.297,0.154-0.248c0.53-1.355,0.915-2.999,1.154-4.932c0.034-0.314,0.163-0.653,0.386-1.017
		c0.085-0.016,0.489,0.355,1.21,1.114C79.055,84.901,79.175,85.173,79.227,85.521z M84.707,85.517
		c0.069,0.611-0.214,1.694-0.847,3.247c-0.582,1.438-1.001,2.157-1.259,2.157c-0.052,0-0.103-0.008-0.154-0.024
		c-0.601-0.347-0.936-0.718-1.004-1.115c0-0.198,0.051-0.297,0.154-0.297c0.582-1.454,0.984-3.099,1.206-4.933
		c0.017-0.298,0.128-0.62,0.334-0.967c0.086-0.016,0.489,0.355,1.21,1.114C84.552,84.931,84.671,85.204,84.707,85.517z"/>
	<path fill="#FFFFFF" d="M107.126,105.453c-1.028,1.504-2.364,3.686-4.009,6.545c-0.308,0.744-0.608,1.487-0.899,2.23
		c-0.24,0.513-0.557,0.769-0.951,0.77c-0.309,0-0.764-0.124-1.364-0.371c-0.668-0.264-1.003-0.528-1.003-0.792
		c0-0.115,0.111-0.372,0.334-0.769c1.113-2.181,2.106-4.899,2.978-8.156c0.94-3.42,1.342-6.031,1.204-7.832
		c-0.035-0.727-0.207-1.09-0.516-1.09c-0.223,0-0.557,0.207-1.002,0.62c-4.319,4.067-8.054,9.506-11.205,16.314
		c-0.394,0.843-0.857,1.265-1.388,1.265c-0.377,0-1.003-0.206-1.878-0.619c-0.343-0.148-0.523-0.289-0.54-0.421
		c0-0.066,0.093-0.297,0.282-0.694c0.993-2.099,1.978-4.759,2.953-7.982c1.044-3.486,1.633-6.205,1.77-8.155
		c0.034-0.595,0.016-0.892-0.052-0.892c-0.018,0-0.257,0.224-0.72,0.67s-1.105,1.025-1.928,1.736
		c-0.154,0.149-0.326,0.223-0.515,0.223c-0.24,0-0.36-0.09-0.36-0.272c0-0.132,0.085-0.281,0.257-0.446
		c0.736-0.909,1.705-2.042,2.905-3.397c0.257-0.281,0.522-0.422,0.797-0.422c0.412,0,0.772,0.289,1.081,0.866
		c1.39,0.396,2.042,1.007,1.957,1.833c-0.188,1.818-1.154,5.098-2.9,9.84c1.147-2.132,2.817-4.516,5.011-7.153
		c2.193-2.636,3.821-4.194,4.884-4.675c0.531-0.231,0.909-0.348,1.132-0.348c0.223,0,0.583,0.182,1.081,0.544
		c1.423,0.479,2.127,1.271,2.111,2.378c0,1.157-0.29,3.016-0.871,5.577c-0.461,2.115-0.889,3.76-1.283,4.933
		c0.497-0.611,1.131-1.405,1.902-2.38c0.137-0.165,0.274-0.248,0.412-0.248c0.257,0,0.386,0.157,0.386,0.471
		C107.178,105.254,107.161,105.354,107.126,105.453z"/>
	<path fill="#FFFFFF" d="M129.25,105.438c-1.028,1.505-2.364,3.687-4.009,6.546c-0.308,0.743-0.608,1.487-0.899,2.23
		c-0.24,0.512-0.557,0.769-0.951,0.769c-0.309,0-0.764-0.124-1.364-0.371c-0.668-0.264-1.003-0.528-1.003-0.793
		c0-0.115,0.111-0.372,0.334-0.768c1.113-2.182,2.106-4.9,2.978-8.156c0.94-3.42,1.342-6.031,1.204-7.832
		c-0.035-0.727-0.207-1.09-0.516-1.09c-0.223,0-0.557,0.207-1.002,0.62c-4.319,4.067-8.054,9.506-11.205,16.314
		c-0.394,0.843-0.857,1.265-1.388,1.265c-0.377,0-1.003-0.206-1.878-0.618c-0.343-0.148-0.523-0.289-0.54-0.421
		c0-0.066,0.093-0.297,0.282-0.694c0.993-2.099,1.978-4.76,2.953-7.982c1.044-3.486,1.633-6.205,1.77-8.155
		c0.034-0.595,0.016-0.892-0.052-0.892c-0.018,0-0.257,0.223-0.72,0.67c-0.463,0.446-1.105,1.025-1.928,1.735
		c-0.154,0.149-0.326,0.224-0.515,0.224c-0.24,0-0.36-0.09-0.36-0.272c0-0.132,0.085-0.281,0.257-0.446
		c0.736-0.909,1.705-2.041,2.905-3.397c0.257-0.281,0.522-0.421,0.797-0.422c0.412,0,0.772,0.289,1.081,0.867
		c1.39,0.396,2.042,1.007,1.957,1.833c-0.188,1.818-1.154,5.098-2.9,9.841c1.147-2.132,2.817-4.516,5.011-7.153
		c2.193-2.636,3.821-4.194,4.884-4.674c0.531-0.232,0.909-0.348,1.132-0.348c0.223,0,0.583,0.182,1.081,0.545
		c1.423,0.479,2.127,1.271,2.111,2.377c0,1.157-0.29,3.016-0.871,5.577c-0.461,2.116-0.889,3.76-1.283,4.933
		c0.497-0.612,1.131-1.405,1.902-2.381c0.137-0.165,0.274-0.248,0.412-0.248c0.257,0,0.386,0.157,0.386,0.47
		C129.301,105.24,129.284,105.339,129.25,105.438z"/>
	<path fill="#FFFFFF" d="M139.096,97.402c-0.41,2.231-1.479,5.941-3.208,11.13c0.497-0.43,1.183-1.216,2.057-2.356
		c0.12-0.149,0.24-0.223,0.36-0.224c0.274,0,0.309,0.231,0.104,0.694c-0.086,0.182-0.806,1.314-2.159,3.397
		c-1.028,1.587-1.782,2.992-2.261,4.214c-0.154,0.38-0.437,0.57-0.848,0.57c-0.412,0-0.969-0.189-1.673-0.568
		c-0.446-0.231-0.668-0.405-0.668-0.521c0-0.099,0.093-0.313,0.282-0.645c0.925-1.57,1.952-4.198,3.082-7.883
		c1.078-3.569,1.685-6.221,1.821-7.956c0.051-0.744-0.026-1.115-0.232-1.115c-0.154,0-0.429,0.182-0.823,0.545l-1.594,1.438
		c-0.566,0.496-0.849,0.521-0.849,0.075c0-0.132,0.077-0.298,0.231-0.496c0.805-1.091,1.662-2.124,2.57-3.1
		c0.274-0.281,0.54-0.421,0.797-0.422c0.274,0,0.677,0.182,1.209,0.545c0.789,0.198,1.226,0.321,1.312,0.371
		c0.395,0.231,0.592,0.661,0.593,1.288C139.198,96.683,139.164,97.022,139.096,97.402z M142.715,86.545
		c0.274,0.198,0.412,0.42,0.412,0.668c0,0.479-0.737,1.223-2.211,2.232c-0.977,0.645-1.92,0.877-2.829,0.696
		c-0.515-0.099-0.961-0.28-1.338-0.545c-0.12-0.099-0.21-0.202-0.27-0.309s-0.073-0.194-0.039-0.26
		c0.051-0.066,0.154-0.083,0.309-0.05c1.577-1.323,2.613-2.273,3.111-2.852c0.394-0.43,0.677-0.645,0.849-0.645
		C141.017,85.48,141.686,85.835,142.715,86.545z"/>
	<path fill="#FFFFFF" d="M161.58,98.974c-0.204,2.792-0.965,5.792-2.283,8.998c-1.233,2.991-2.449,5.032-3.649,6.123
		c-0.686,0.612-1.38,0.918-2.083,0.918c-0.789,0-2.101-0.61-3.937-1.831c-0.36-0.231-0.541-0.471-0.541-0.718
		c0-0.314,0.231-0.471,0.694-0.472c0.188,0,0.463,0.058,0.823,0.173c0.361,0.116,0.652,0.173,0.875,0.173
		c1.252-0.001,2.375-0.77,3.368-2.307c0.839-1.322,1.636-3.099,2.389-5.33c0.907-2.776,1.299-5.164,1.178-7.163
		c-0.052-0.958-0.387-1.438-1.004-1.437c-0.549,0-1.218,0.365-2.006,1.092c-5.553,5.125-9.459,11.25-11.718,18.372
		c-1.283,4.049-2.139,7.8-2.564,11.253c-0.018,0.115-0.247,2.982-0.689,8.6c-0.068,0.81-0.273,1.214-0.616,1.214
		c-0.36,0-1.004-0.404-1.93-1.213c-0.669-0.594-0.927-1.321-0.773-2.18c0.75-8.229,2.81-17.392,6.181-27.488
		c2.653-7.899,4.759-13.022,6.318-15.37c0.925-1.372,1.748-2.042,2.468-2.009c0.72,0.017,2.092,0.635,4.117,1.856
		c0.275,0.165,0.412,0.338,0.412,0.52c0,0.248-0.205,0.372-0.617,0.372c-0.103,0-0.275-0.021-0.515-0.062
		c-0.24-0.041-0.421-0.062-0.541-0.062c-1.081,0.001-2.203,0.886-3.368,2.654c-0.685,1.009-1.55,2.703-2.595,5.082
		c-1.044,2.38-1.797,4.338-2.259,5.875c2.518-3.967,5.448-7.372,8.791-10.216c0.514-0.43,0.977-0.646,1.389-0.646
		c0.188,0,0.66,0.248,1.415,0.743C160.643,95.282,161.733,96.776,161.58,98.974z"/>
	<path fill="#FFFFFF" d="M181.49,97.722c-1.575,4.214-2.662,7.751-3.26,10.609c0.257-0.231,0.595-0.586,1.016-1.066
		c0.42-0.479,0.681-0.76,0.784-0.843c0.24-0.297,0.497-0.447,0.772-0.447c0.257,0,0.386,0.124,0.386,0.372
		c0,0.148-0.068,0.323-0.205,0.521c-1.611,2.297-2.681,4.62-3.211,6.966c-0.154,0.661-0.385,0.992-0.694,0.992
		c-0.292,0-0.832-0.264-1.621-0.792c-0.463-0.297-0.73-0.545-0.798-0.743c-0.086-0.182-0.086-0.545,0-1.09
		c0.717-4.197,1.615-7.684,2.694-10.46c-1.491,2.331-3.521,4.909-6.091,7.736c-2.245,2.463-3.865,4.034-4.859,4.711
		c-0.72,0.479-1.269,0.72-1.646,0.72c-0.309,0-0.78-0.239-1.415-0.718c-0.909-0.528-1.364-1.254-1.365-2.18
		c0-0.182,0.018-0.388,0.051-0.62c0.307-2.445,1.42-5.292,3.338-8.54c1.918-3.248,4.12-5.988,6.605-8.219
		c0.806-0.728,1.525-1.083,2.16-1.067c0.617,0.033,1.792,0.816,3.525,2.352c0.155,0.132,0.232,0.272,0.232,0.421
		c0,0.264-0.179,0.396-0.54,0.397c-0.137,0-0.266-0.025-0.386-0.075c-1.218-0.495-2.196-0.478-2.933,0.052
		c-1.612,1.141-3.394,3.149-5.347,6.026c-2.261,3.306-3.623,6.281-4.084,8.924c-0.017,0.117-0.026,0.224-0.026,0.323
		c0,0.413,0.172,0.619,0.515,0.619c0.583,0,1.277-0.389,2.083-1.166c1.92-1.802,3.976-4.067,6.169-6.794
		c2.245-2.827,3.684-4.959,4.317-6.397c0.462-1.057,0.762-1.801,0.899-2.231c0.222-0.744,0.462-1.116,0.719-1.116
		c0.257,0,0.858,0.338,1.801,1.015c0.395,0.281,0.609,0.537,0.644,0.768C181.755,96.879,181.678,97.226,181.49,97.722z
		 M178.06,85.457c0.052,0.678-0.23,1.776-0.847,3.296c-0.565,1.421-0.976,2.132-1.233,2.132c-0.206,0-0.446-0.144-0.72-0.433
		c-0.275-0.288-0.43-0.532-0.464-0.73c0-0.214,0.051-0.297,0.154-0.248c0.53-1.355,0.915-2.999,1.154-4.933
		c0.034-0.313,0.163-0.652,0.386-1.016c0.085-0.016,0.489,0.355,1.21,1.114C177.888,84.837,178.008,85.109,178.06,85.457z
		 M183.54,85.453c0.069,0.611-0.214,1.694-0.847,3.247c-0.582,1.438-1.001,2.157-1.259,2.157c-0.052,0-0.103-0.008-0.154-0.025
		c-0.601-0.347-0.936-0.718-1.004-1.114c0-0.198,0.051-0.297,0.154-0.298c0.582-1.454,0.984-3.099,1.206-4.932
		c0.017-0.298,0.128-0.62,0.334-0.967c0.086-0.016,0.489,0.355,1.21,1.115C183.385,84.867,183.504,85.139,183.54,85.453z"/>
	<path fill="#FFFFFF" d="M197.471,107.154c-4.164,5.141-7.095,7.712-8.792,7.713c-0.806,0.001-1.826-0.536-3.062-1.608
		c-1.287-0.578-1.931-1.354-1.931-2.329c0-0.182,0.017-0.372,0.051-0.57c0.307-2.263,0.931-4.767,1.873-7.51
		c-0.635-0.313-0.953-0.61-0.953-0.892c0-0.231,0.18-0.347,0.541-0.347c0.274,0,0.557,0.074,0.849,0.222
		c1.524-3.305,2.894-5.652,4.111-7.041c0.788-0.926,1.5-1.389,2.134-1.39c0.292,0,1.012,0.239,2.162,0.717
		c-0.086-0.496,0.06-0.784,0.437-0.868c0.017,0,0.42,0,1.209,0c0.737,0,1.106,0.123,1.106,0.371c0,0.05-0.025,0.19-0.077,0.421
		c-0.051,0.231-0.077,0.446-0.077,0.645c0,0.595,0.009,1.33,0.027,2.206c0.017,0.876,0.026,1.462,0.026,1.76
		c0.001,2.049-0.581,3.479-1.746,4.289c-1.063,0.744-2.263,1.117-3.601,1.117c-0.703,0-1.87-0.18-3.499-0.542
		c-0.291,0.512-0.616,1.512-0.976,2.999c-0.479,1.884-0.7,3.553-0.665,5.007c0.018,0.859,0.3,1.289,0.85,1.288
		c0.206,0,0.472-0.05,0.797-0.149c1.989-0.679,4.757-2.745,8.305-6.201c0.223-0.215,0.446-0.323,0.669-0.323
		c0.325,0,0.489,0.148,0.489,0.445C197.729,106.765,197.643,106.956,197.471,107.154z M194.454,96.202
		c0-0.645-0.146-0.967-0.438-0.967c-0.189,0-0.463,0.133-0.823,0.397c-1.68,1.307-3.153,3.596-4.419,6.868
		c0.343,0.049,0.943,0.099,1.801,0.147c1.389,0.049,2.426-0.257,3.112-0.919c0.514-0.496,0.797-1.314,0.847-2.454
		C194.482,100.117,194.456,99.093,194.454,96.202z"/>
	<path fill="#FFFFFF" d="M217.117,96.286c-0.429,0.942-0.916,2.058-1.464,3.347c0.12,0.33,0.507,0.892,1.158,1.684
		c0.12,0.166,0.095,0.331-0.077,0.496c-0.17,0.166-0.401,0.249-0.693,0.249c-0.411,0-0.772-0.181-1.081-0.544
		c-1.13,2.462-2.414,4.967-3.853,7.512c-1.509,2.711-2.587,4.388-3.239,5.033c-0.565,0.546-1.13,0.818-1.696,0.819
		c-0.532,0-1.004-0.206-1.416-0.618c-0.651,0.264-1.123,0.397-1.414,0.397c-0.601,0-1.064-0.503-1.391-1.511
		c-0.447-1.421-0.671-3.444-0.673-6.072c-0.003-3.75,0.33-6.551,0.998-8.402c-0.378,0.332-1.098,1.059-2.16,2.183
		c-0.188,0.199-0.403,0.298-0.643,0.298c-0.326,0-0.489-0.14-0.489-0.421c0-0.148,0.077-0.322,0.231-0.521
		c1.028-1.339,2.373-3.116,4.035-5.331c0.428-0.595,0.874-0.893,1.337-0.893c0.515,0,1.304,0.396,2.367,1.188
		c0.223,0.182,0.335,0.38,0.335,0.595c0,0.413-0.308,0.719-0.926,0.917c-1.507,3.107-2.259,6.602-2.256,10.484
		c0.001,2,0.251,3.668,0.749,5.006c0.189,0.529,0.446,0.792,0.772,0.792c0.325,0,0.703-0.281,1.132-0.843
		c1.318-1.769,2.621-3.934,3.905-6.496c1.146-2.297,1.909-4.14,2.285-5.528c-0.223-0.379-0.334-0.883-0.335-1.511
		c-0.001-1.124,0.375-2.619,1.129-4.487c0.324-0.776,0.745-1.165,1.259-1.166c0.292,0,0.892,0.256,1.802,0.767
		c0.446,0.248,0.669,0.578,0.669,0.991C217.477,94.997,217.356,95.526,217.117,96.286z"/>
	<path fill="#FFFFFF" d="M235.718,97.687c-1.576,4.214-2.662,7.751-3.261,10.609c0.258-0.231,0.596-0.586,1.016-1.066
		c0.42-0.479,0.682-0.76,0.784-0.843c0.239-0.297,0.496-0.447,0.771-0.447c0.258,0,0.386,0.124,0.387,0.372
		c0,0.148-0.068,0.322-0.205,0.521c-1.61,2.297-2.682,4.62-3.211,6.966c-0.154,0.661-0.385,0.991-0.693,0.992
		c-0.292,0-0.833-0.264-1.622-0.792c-0.463-0.297-0.729-0.545-0.797-0.743c-0.087-0.182-0.087-0.545-0.001-1.09
		c0.717-4.197,1.614-7.684,2.693-10.46c-1.49,2.331-3.521,4.91-6.091,7.737c-2.245,2.463-3.865,4.034-4.859,4.711
		c-0.721,0.479-1.269,0.72-1.646,0.72c-0.309,0-0.781-0.239-1.416-0.718c-0.908-0.528-1.364-1.254-1.364-2.18
		c-0.001-0.182,0.017-0.388,0.051-0.62c0.307-2.445,1.419-5.292,3.338-8.54c1.919-3.248,4.121-5.988,6.605-8.219
		c0.806-0.728,1.526-1.083,2.161-1.067c0.617,0.033,1.792,0.816,3.525,2.352c0.154,0.132,0.231,0.272,0.232,0.421
		c0,0.264-0.181,0.396-0.54,0.396c-0.138,0-0.267-0.024-0.387-0.074c-1.219-0.495-2.196-0.478-2.933,0.052
		c-1.61,1.141-3.394,3.149-5.347,6.026c-2.262,3.306-3.623,6.281-4.084,8.924c-0.018,0.116-0.024,0.223-0.024,0.322
		c0,0.413,0.171,0.62,0.515,0.62c0.582,0,1.277-0.389,2.082-1.166c1.92-1.802,3.976-4.067,6.169-6.794
		c2.245-2.827,3.685-4.959,4.318-6.397c0.462-1.058,0.762-1.801,0.898-2.231c0.223-0.744,0.463-1.116,0.72-1.116
		c0.258,0,0.857,0.338,1.801,1.015c0.395,0.281,0.609,0.537,0.645,0.768C235.982,96.844,235.905,97.191,235.718,97.687z"/>
	<path fill="#FFFFFF" d="M79.8,151.053c-0.034,1.471-0.401,3.42-1.102,5.85c-1.112,3.834-2.688,6.809-4.728,8.925
		c-1.079,1.124-2.279,1.687-3.6,1.688c-0.515,0-1.175-0.107-1.981-0.321c-1.612-0.098-2.925-0.584-3.937-1.459
		c-1.098-0.958-1.613-2.188-1.546-3.692c0.067-1.751,0.692-4.197,1.873-7.337c1.301-3.421,2.654-5.883,4.059-7.388
		c0.668-0.728,1.217-1.091,1.646-1.091c0.583,0,1.526,0.577,2.831,1.732c0.36-0.165,1.097-0.472,2.212-0.918
		c0.565-0.182,0.994-0.273,1.286-0.273c0.669,0,1.416,0.603,2.24,1.808C79.584,149.318,79.833,150.144,79.8,151.053z
		 M76.842,151.773c0.119-1.107,0.179-1.809,0.179-2.106c0-0.694-0.224-1.041-0.669-1.041c-0.172,0-0.395,0.033-0.669,0.1
		l-3.986,1.563c-0.462,0.183-0.729,0.273-0.797,0.273c-0.137,0-0.275-0.157-0.412-0.471c-0.994,1.174-1.919,2.868-2.775,5.082
		c-0.667,1.735-1.129,3.289-1.386,4.66c-0.188,0.926-0.282,1.769-0.281,2.528c0.002,2.544,0.817,3.783,2.447,3.716
		c0.651-0.017,1.354-0.265,2.109-0.745c1.439-0.942,2.785-2.827,4.035-5.653C75.833,157.02,76.569,154.385,76.842,151.773z
		 M82.622,139.428c-0.583,0.678-1.32,1.43-2.211,2.256c-1.012,0.91-1.628,1.349-1.851,1.315c-0.789-0.164-1.896-1.015-3.32-2.55
		c-0.841-0.743-1.63-1.18-2.367-1.312c-0.447-0.132-1.424,0.596-2.931,2.183c0,0.364-0.129,0.546-0.386,0.546
		c-0.223,0-0.446-0.132-0.669-0.396c-0.481-0.545-0.627-0.933-0.438-1.165c0.565-0.694,1.311-1.463,2.237-2.306
		c1.011-0.909,1.636-1.339,1.876-1.29c0.755,0.132,1.862,0.99,3.321,2.575c0.721,0.644,1.492,1.082,2.316,1.312
		c0.549,0.116,1.534-0.628,2.957-2.232c0.017-0.347,0.163-0.521,0.437-0.521c0.223,0,0.446,0.124,0.669,0.372
		c0.361,0.445,0.541,0.718,0.541,0.817C82.802,139.147,82.741,139.279,82.622,139.428z"/>
	<path fill="#FFFFFF" d="M101.156,157.904c-1.028,1.504-2.364,3.686-4.009,6.545c-0.308,0.744-0.608,1.487-0.898,2.23
		c-0.24,0.513-0.557,0.769-0.951,0.77c-0.309,0-0.764-0.124-1.364-0.371c-0.668-0.264-1.003-0.528-1.003-0.792
		c0-0.115,0.111-0.372,0.334-0.769c1.113-2.181,2.106-4.899,2.978-8.156c0.941-3.42,1.342-6.031,1.204-7.832
		c-0.035-0.727-0.206-1.09-0.515-1.09c-0.223,0-0.557,0.207-1.002,0.62c-4.319,4.067-8.054,9.506-11.205,16.314
		c-0.395,0.843-0.857,1.265-1.389,1.265c-0.377,0-1.003-0.206-1.878-0.619c-0.344-0.148-0.524-0.289-0.541-0.421
		c0-0.066,0.094-0.297,0.282-0.694c0.993-2.099,1.978-4.759,2.953-7.982c1.043-3.486,1.633-6.205,1.769-8.155
		c0.034-0.595,0.016-0.892-0.052-0.892c-0.018,0-0.257,0.224-0.72,0.67s-1.105,1.025-1.928,1.736
		c-0.154,0.149-0.326,0.223-0.514,0.223c-0.24,0-0.36-0.09-0.36-0.272c0-0.132,0.085-0.281,0.257-0.446
		c0.736-0.909,1.705-2.042,2.904-3.397c0.257-0.281,0.522-0.422,0.797-0.422c0.412,0,0.772,0.289,1.081,0.866
		c1.39,0.396,2.042,1.007,1.957,1.833c-0.188,1.818-1.154,5.098-2.9,9.84c1.147-2.132,2.818-4.516,5.011-7.153
		c2.193-2.636,3.821-4.194,4.884-4.675c0.531-0.231,0.909-0.348,1.132-0.348c0.223,0,0.583,0.182,1.081,0.544
		c1.423,0.479,2.126,1.271,2.111,2.378c0.001,1.157-0.29,3.016-0.871,5.577c-0.461,2.115-0.889,3.76-1.283,4.933
		c0.497-0.611,1.131-1.405,1.902-2.38c0.137-0.165,0.274-0.248,0.412-0.248c0.257,0,0.386,0.157,0.386,0.471
		C101.207,157.706,101.19,157.805,101.156,157.904z"/>
	<path fill="#FFFFFF" d="M123.279,157.889c-1.028,1.505-2.364,3.687-4.009,6.546c-0.308,0.743-0.608,1.487-0.898,2.23
		c-0.24,0.512-0.557,0.769-0.951,0.769c-0.309,0-0.764-0.124-1.364-0.371c-0.668-0.264-1.003-0.528-1.003-0.793
		c0-0.115,0.111-0.372,0.334-0.768c1.113-2.182,2.106-4.9,2.978-8.156c0.941-3.42,1.342-6.031,1.204-7.832
		c-0.035-0.727-0.206-1.09-0.515-1.09c-0.223,0-0.557,0.207-1.002,0.62c-4.319,4.067-8.054,9.506-11.205,16.314
		c-0.395,0.843-0.857,1.265-1.389,1.265c-0.377,0-1.003-0.206-1.878-0.618c-0.344-0.148-0.524-0.289-0.541-0.421
		c0-0.066,0.094-0.297,0.282-0.694c0.993-2.099,1.978-4.76,2.953-7.982c1.043-3.486,1.633-6.205,1.769-8.155
		c0.034-0.595,0.016-0.892-0.052-0.892c-0.018,0-0.257,0.223-0.72,0.67c-0.463,0.446-1.105,1.025-1.928,1.735
		c-0.154,0.149-0.326,0.224-0.514,0.224c-0.24,0-0.36-0.09-0.36-0.272c0-0.132,0.085-0.281,0.257-0.446
		c0.736-0.909,1.705-2.041,2.904-3.397c0.257-0.281,0.522-0.421,0.797-0.422c0.412,0,0.772,0.289,1.081,0.867
		c1.39,0.396,2.042,1.007,1.957,1.833c-0.188,1.818-1.154,5.098-2.9,9.841c1.147-2.132,2.818-4.516,5.011-7.153
		c2.193-2.636,3.821-4.194,4.884-4.674c0.531-0.232,0.909-0.348,1.132-0.348c0.223,0,0.583,0.182,1.081,0.545
		c1.423,0.479,2.126,1.271,2.111,2.377c0.001,1.157-0.29,3.016-0.871,5.577c-0.461,2.116-0.889,3.76-1.283,4.933
		c0.497-0.612,1.131-1.405,1.902-2.381c0.137-0.165,0.274-0.248,0.412-0.248c0.257,0,0.386,0.157,0.386,0.47
		C123.33,157.691,123.313,157.79,123.279,157.889z"/>
	<path fill="#FFFFFF" d="M133.125,149.853c-0.41,2.231-1.479,5.941-3.208,11.13c0.497-0.43,1.182-1.216,2.056-2.356
		c0.12-0.149,0.24-0.223,0.36-0.224c0.274,0,0.309,0.231,0.104,0.694c-0.086,0.182-0.805,1.314-2.158,3.397
		c-1.028,1.587-1.782,2.992-2.261,4.214c-0.154,0.38-0.437,0.57-0.849,0.57c-0.412,0-0.969-0.189-1.672-0.568
		c-0.446-0.231-0.669-0.405-0.669-0.521c0-0.099,0.093-0.313,0.282-0.645c0.925-1.57,1.952-4.198,3.082-7.883
		c1.078-3.569,1.685-6.221,1.821-7.956c0.05-0.744-0.027-1.115-0.232-1.115c-0.154,0-0.429,0.182-0.823,0.545l-1.594,1.438
		c-0.566,0.496-0.848,0.521-0.849,0.075c0-0.132,0.077-0.298,0.231-0.496c0.805-1.091,1.662-2.124,2.57-3.1
		c0.274-0.281,0.54-0.421,0.797-0.422c0.274,0,0.677,0.182,1.209,0.545c0.789,0.198,1.226,0.321,1.312,0.371
		c0.395,0.231,0.592,0.661,0.593,1.288C133.228,149.134,133.193,149.473,133.125,149.853z M136.745,138.997
		c0.274,0.198,0.412,0.42,0.412,0.668c0,0.479-0.737,1.223-2.21,2.232c-0.978,0.645-1.92,0.877-2.83,0.696
		c-0.515-0.099-0.961-0.28-1.338-0.545c-0.12-0.099-0.21-0.202-0.271-0.309s-0.073-0.194-0.039-0.26
		c0.051-0.066,0.154-0.083,0.309-0.05c1.577-1.323,2.614-2.273,3.111-2.852c0.394-0.43,0.677-0.645,0.849-0.645
		C135.047,137.932,135.716,138.287,136.745,138.997z"/>
	<path fill="#FFFFFF" d="M150.428,135.071c0.48,0.248,0.721,0.528,0.721,0.842c0,0.215-0.163,0.323-0.488,0.323
		c-0.069,0-0.177-0.013-0.322-0.037c-0.146-0.024-0.253-0.037-0.321-0.037c-0.652,0-1.44,0.687-2.365,2.059
		c-0.822,1.224-1.961,3.884-3.416,7.982c-0.138,0.364-0.189,0.579-0.154,0.645c0.051,0.116,0.274,0.182,0.669,0.198
		c1.011,0.083,2.366,0.048,4.064-0.102c0.583-0.05,0.875,0.189,0.875,0.718c0,0.364-0.223,0.587-0.668,0.669
		c-0.36,0.05-2.255,0.2-5.685,0.45c-2.054,5.801-3.303,10.708-3.746,14.724c-0.017,0.215-0.025,0.405-0.025,0.57
		c0,0.562,0.146,0.843,0.438,0.842c0.463,0,1.86-1.083,4.191-3.249c0.274-0.265,0.54-0.397,0.797-0.397
		c0.223,0,0.36,0.09,0.412,0.272c0.052,0.198-0.025,0.43-0.231,0.694c-1.387,1.769-2.75,3.273-4.086,4.514
		c-0.566,0.512-1.038,0.769-1.415,0.769c-0.377,0-0.961-0.289-1.75-0.867c-0.978-0.247-1.467-0.742-1.468-1.486
		c0-0.115,0.017-0.248,0.051-0.396c0.631-4.263,1.871-9.51,3.719-15.74c-0.91-0.115-1.733-0.23-2.47-0.345
		c-0.326-0.049-0.489-0.248-0.489-0.594c0-0.38,0.17-0.611,0.514-0.694c0.343-0.083,0.978-0.265,1.904-0.546
		c0.565-0.182,1.114-0.431,1.646-0.745c1.831-5.469,3.27-9.014,4.314-10.634c0.6-0.925,1.243-1.389,1.929-1.389
		C148.223,134.082,149.175,134.412,150.428,135.071z"/>
	<path fill="#FFFFFF" d="M168.713,128.22c0.223,0.165,0.335,0.339,0.335,0.521c0,0.314-0.197,0.471-0.591,0.471
		c-0.171,0-0.352-0.049-0.541-0.148c-0.789-0.379-1.381-0.569-1.775-0.569c-1.081,0.001-2.263,1.009-3.548,3.026
		c-4.66,7.322-7.972,16.784-9.936,28.383c-0.051,0.314-0.137,0.736-0.256,1.265c0.394-0.397,0.977-1.042,1.748-1.935
		c0.445-0.512,0.771-0.769,0.977-0.769c0.446,0,0.479,0.256,0.103,0.769c-1.645,2.265-2.732,4.636-3.262,7.114
		c-0.188,0.612-0.429,0.917-0.72,0.917c-0.137,0-0.317-0.074-0.54-0.222c-0.875-0.561-1.373-0.892-1.493-0.991
		c-0.344-0.33-0.515-0.759-0.515-1.288c0-0.264,0.042-0.586,0.128-0.966c1.982-10.526,4.54-19.491,7.673-26.895
		c2.363-5.586,4.478-9.206,6.346-10.859c0.514-0.463,1.029-0.686,1.543-0.67c0.463,0.016,1.064,0.296,1.801,0.841
		C167.031,126.874,167.872,127.543,168.713,128.22z"/>
	<path fill="#FFFFFF" d="M177.833,148.709c-2.278,4.083-3.981,8.875-5.109,14.377c0.479-0.81,1.062-1.843,1.747-3.099
		c0.085-0.231,0.223-0.347,0.412-0.347c0.257,0,0.386,0.157,0.386,0.471c0,0.099-0.025,0.207-0.077,0.322
		c-1.096,2.413-1.815,4.272-2.157,5.578c-0.205,0.826-0.479,1.239-0.822,1.239c-0.343,0-1.012-0.321-2.007-0.965
		c-0.532-0.363-0.712-1.007-0.542-1.933c0.718-3.602,1.582-6.733,2.592-9.395c-3.307,5.19-6.082,9.017-8.327,11.479
		c-0.497,0.546-1.037,0.819-1.62,0.819c-0.48,0-1.046-0.189-1.698-0.569c-1.184-0.198-1.776-0.792-1.776-1.783
		c0-0.182,0.017-0.38,0.051-0.595c0.426-4.725,1.315-8.65,2.668-11.773c-0.292,0.264-0.729,0.653-1.312,1.165
		c-0.223,0.183-0.395,0.232-0.515,0.149c-0.137-0.099-0.112-0.289,0.077-0.57c0.925-1.305,1.473-2.165,1.645-2.578
		c0.53-1.289,1.087-2.289,1.67-3c0.308-0.363,0.634-0.545,0.977-0.545c0.463,0,1.141,0.264,2.033,0.792
		c0.24,0.148,0.361,0.297,0.361,0.446l-0.565,0.818c-0.857,1.256-1.764,3.471-2.723,6.644c-1.043,3.438-1.573,6.238-1.589,8.403
		c0,0.71,0.155,1.065,0.464,1.065c0.274,0,0.72-0.306,1.337-0.917c1.319-1.356,3.23-3.918,5.731-7.687
		c2.21-3.322,3.546-5.487,4.008-6.496c0.771-1.686,1.396-2.677,1.876-2.975c0.309-0.199,0.583-0.298,0.823-0.298
		c0.24,0,0.703,0.173,1.389,0.52c0.686,0.346,1.029,0.602,1.03,0.767c0,0.05-0.061,0.116-0.18,0.199
		C177.971,148.52,177.885,148.61,177.833,148.709z"/>
	<path fill="#FFFFFF" d="M187.206,161.045c0.053,1.982-1.087,3.338-3.419,4.066c-0.291,0.694-0.565,1.174-0.822,1.438
		c-0.395,0.397-0.977,0.628-1.749,0.695c-0.498,0.034-1.029,0.009-1.595-0.073c-1.012-0.148-2.255-0.329-3.73-0.543
		c-0.412-0.065-0.661-0.305-0.747-0.718c0.068-0.447,0.548-0.711,1.439-0.794c1.218-0.083,3.018-0.291,5.402-0.623
		c0.891-0.199,1.525-0.687,1.902-1.463c0.223-0.396,0.334-0.884,0.333-1.463c0-1.041-0.542-2.874-1.624-5.5
		c-1.065-2.561-1.563-4.27-1.496-5.129c0.136-2.065,2.116-3.504,5.939-4.316c0.377-0.083,0.566,0.049,0.566,0.396
		c0,0.198-0.137,0.355-0.412,0.471c-1.851,0.778-2.776,1.737-2.775,2.877c0,0.446,0.086,1.004,0.258,1.673s0.688,2.276,1.547,4.819
		C186.861,158.691,187.188,160.087,187.206,161.045z M191.313,146.817c0,0.744-0.205,1.933-0.615,3.569
		c-0.154,0.562-0.325,0.925-0.514,1.091c-0.086,0.083-0.377,0.207-0.875,0.372c-0.634,0.232-1.029,0.348-1.183,0.348
		c-0.257,0-0.386-0.165-0.386-0.495c0-0.182,0.034-0.421,0.102-0.719c0.411-1.636,0.568-2.772,0.474-3.408
		c-0.095-0.636,0.098-1.037,0.578-1.203c0.84-0.413,1.38-0.621,1.621-0.621C191.045,145.751,191.312,146.106,191.313,146.817z"/>
	<path fill="#FFFFFF" d="M206.533,135.035c0.479,0.248,0.72,0.528,0.721,0.842c0,0.215-0.163,0.322-0.488,0.322
		c-0.069,0-0.177-0.012-0.322-0.037c-0.146-0.025-0.253-0.038-0.321-0.038c-0.652,0-1.44,0.687-2.365,2.059
		c-0.822,1.224-1.961,3.884-3.416,7.982c-0.138,0.364-0.189,0.579-0.154,0.645c0.051,0.116,0.274,0.182,0.669,0.198
		c1.011,0.083,2.366,0.048,4.064-0.102c0.582-0.05,0.874,0.189,0.875,0.718c0,0.364-0.223,0.586-0.669,0.669
		c-0.36,0.05-2.255,0.2-5.685,0.45c-2.054,5.801-3.303,10.708-3.746,14.724c-0.017,0.215-0.025,0.405-0.025,0.57
		c0,0.562,0.146,0.843,0.438,0.843c0.463,0,1.86-1.083,4.191-3.25c0.274-0.264,0.54-0.397,0.797-0.397
		c0.223,0,0.36,0.091,0.412,0.272c0.051,0.198-0.026,0.43-0.231,0.694c-1.388,1.769-2.75,3.273-4.087,4.513
		c-0.566,0.512-1.038,0.769-1.415,0.769c-0.377,0-0.961-0.289-1.75-0.867c-0.978-0.247-1.467-0.742-1.468-1.486
		c0-0.115,0.017-0.248,0.051-0.396c0.631-4.263,1.871-9.509,3.719-15.74c-0.91-0.114-1.733-0.229-2.47-0.345
		c-0.326-0.05-0.489-0.248-0.489-0.595c0-0.38,0.17-0.611,0.514-0.694c0.343-0.083,0.978-0.265,1.904-0.547
		c0.565-0.182,1.114-0.43,1.646-0.745c1.831-5.47,3.27-9.014,4.314-10.635c0.6-0.925,1.243-1.389,1.929-1.389
		C204.328,134.045,205.28,134.375,206.533,135.035z"/>
	<path fill="#FFFFFF" d="M228.195,137.301c0.001,1.603-1.345,4.305-4.034,8.106c-2.382,3.356-4.899,6.373-7.556,9.05
		c0.137-0.033,0.643-0.198,1.517-0.497c0.754-0.265,1.199-0.397,1.338-0.397c0.479,0,0.719,0.231,0.72,0.693
		c0,0.331-0.223,0.57-0.668,0.719c-2.829,0.96-4.776,1.911-5.838,2.854c-0.377,0.314-0.703,0.471-0.977,0.472
		c-0.533,0-1.072-0.768-1.622-2.304c-0.035-0.099-0.051-0.189-0.051-0.272c-0.001-0.297,0.487-0.834,1.463-1.612
		c2.556-2.018,5.065-4.646,7.532-7.886c2.655-3.488,4.077-6.207,4.266-8.157c0.169-1.652-0.637-2.478-2.42-2.477
		c-0.498,0-0.986,0.1-1.466,0.298c-3.772,1.539-7.021,3.838-9.746,6.896c-0.239,0.265-0.358,0.57-0.358,0.917
		c0,0.198,0.043,0.455,0.13,0.768c0.084,0.314,0.127,0.537,0.127,0.668c0,0.396-0.222,0.595-0.667,0.595
		c-0.377,0-0.755-0.214-1.134-0.643c-1.132-1.338-1.699-2.229-1.699-2.676c0-0.446,0.3-0.958,0.899-1.537
		c4.011-3.901,7.772-6.464,11.288-7.69c0.839-0.281,1.542-0.422,2.108-0.423c0.961,0,1.991,0.717,3.09,2.154
		c0.926,0.148,1.74,0.42,2.443,0.816C227.757,136.203,228.194,136.723,228.195,137.301z M215.557,163.009
		c0.359,0.248,0.539,0.512,0.539,0.792c0.001,0.413-0.753,1.265-2.262,2.554c-0.89,0.744-1.593,1.116-2.108,1.117
		c-0.223,0-1.141-0.371-2.753-1.113c-0.139-0.05-0.24-0.136-0.309-0.26s-0.078-0.227-0.025-0.31
		c0.068-0.099,0.195-0.132,0.385-0.099c0.874-0.745,1.996-1.794,3.368-3.15c0.393-0.479,0.711-0.719,0.951-0.719
		C213.685,161.821,214.423,162.217,215.557,163.009z"/>
</g>
<rect fill="none" stroke="#F4846D" stroke-width="1.5" stroke-miterlimit="10" width="300.001" height="200"/>
</svg>
