<?xml version="1.0" encoding="utf-8"?>
<!-- Generator: Adobe Illustrator 16.0.0, SVG Export Plug-In . SVG Version: 6.00 Build 0)  -->
<!DOCTYPE svg PUBLIC "-//W3C//DTD SVG 1.1//EN" "http://www.w3.org/Graphics/SVG/1.1/DTD/svg11.dtd">
<svg version="1.1" id="Layer_1" xmlns="http://www.w3.org/2000/svg" xmlns:xlink="http://www.w3.org/1999/xlink" x="0px" y="0px"
	 width="126px" height="126px" viewBox="0 0 126 126" enable-background="new 0 0 126 126" xml:space="preserve">
<path fill="#7F7F7F" d="M125.682,113.174c0,7.083-5.412,12.826-12.083,12.826H14.585C7.91,126,2.5,120.258,2.5,113.174V70.814
	c0-7.084,5.41-12.823,12.085-12.823h99.012c6.672,0,12.085,5.741,12.085,12.823V113.174L125.682,113.174z"/>
<polygon fill="#F4846D" points="33.763,76.359 33.779,17.253 94.063,17.253 94.063,75.91 63.457,91.227 "/>
<polyline fill="none" stroke="#FFFFFF" stroke-width="3" stroke-linecap="round" stroke-linejoin="round" stroke-miterlimit="10" points="
	122.203,64.009 63.637,91.239 5.579,63.348 "/>
<g>
	<path fill="#FFFFFF" d="M65.479,48.283c-0.479,0.552-1.014,0.995-1.605,1.33c-0.592,0.334-1.186,0.502-1.782,0.502
		c-0.655,0-1.291-0.191-1.909-0.574c-0.618-0.382-1.12-0.971-1.506-1.766c-0.386-0.795-0.579-1.666-0.579-2.615
		c0-1.17,0.299-2.341,0.899-3.514s1.344-2.054,2.234-2.643s1.754-0.883,2.593-0.883c0.64,0,1.25,0.167,1.831,0.502
		c0.582,0.335,1.082,0.844,1.5,1.528l0.375-1.71h1.976l-1.589,7.404c-0.221,1.03-0.331,1.6-0.331,1.71
		c0,0.199,0.075,0.37,0.226,0.513c0.151,0.143,0.334,0.215,0.547,0.215c0.39,0,0.9-0.225,1.533-0.673
		c0.838-0.588,1.502-1.377,1.992-2.367c0.489-0.989,0.733-2.01,0.733-3.062c0-1.229-0.314-2.376-0.943-3.443
		c-0.629-1.066-1.567-1.92-2.813-2.56c-1.246-0.64-2.625-0.96-4.131-0.96c-1.722,0-3.293,0.403-4.718,1.208
		c-1.423,0.806-2.526,1.96-3.31,3.465c-0.783,1.504-1.175,3.117-1.175,4.838c0,1.803,0.392,3.354,1.175,4.656
		c0.784,1.302,1.916,2.264,3.398,2.885c1.482,0.622,3.124,0.933,4.926,0.933c1.928,0,3.543-0.324,4.845-0.971
		s2.276-1.434,2.924-2.361h1.997c-0.375,0.772-1.02,1.559-1.932,2.361c-0.912,0.802-1.996,1.437-3.254,1.903
		c-1.258,0.467-2.773,0.701-4.547,0.701c-1.633,0-3.139-0.209-4.518-0.629c-1.379-0.419-2.554-1.05-3.525-1.892
		c-0.971-0.842-1.703-1.812-2.196-2.907c-0.618-1.391-0.927-2.891-0.927-4.502c0-1.794,0.368-3.505,1.104-5.131
		c0.897-1.993,2.172-3.52,3.823-4.579c1.651-1.06,3.654-1.589,6.008-1.589c1.824,0,3.462,0.374,4.916,1.12
		c1.453,0.747,2.598,1.859,3.438,3.338c0.713,1.272,1.069,2.655,1.069,4.148c0,2.133-0.75,4.027-2.251,5.683
		c-1.339,1.486-2.803,2.229-4.393,2.229c-0.506,0-0.916-0.077-1.229-0.231c-0.313-0.155-0.542-0.375-0.69-0.662
		C65.591,49.048,65.521,48.731,65.479,48.283z M60.137,45.292c0,1.008,0.239,1.791,0.717,2.35s1.026,0.838,1.644,0.838
		c0.412,0,0.846-0.123,1.302-0.37c0.456-0.246,0.892-0.612,1.308-1.098c0.416-0.486,0.756-1.102,1.021-1.848
		c0.266-0.747,0.396-1.495,0.396-2.245c0-1-0.248-1.777-0.744-2.328c-0.496-0.552-1.102-0.828-1.815-0.828
		c-0.471,0-0.914,0.12-1.33,0.358c-0.416,0.239-0.818,0.624-1.208,1.153c-0.39,0.529-0.703,1.173-0.938,1.931
		C60.255,43.965,60.137,44.66,60.137,45.292z"/>
</g>
<line fill="none" stroke="#FFFFFF" stroke-miterlimit="10" x1="38.39" y1="99.553" x2="89.725" y2="99.553"/>
<line fill="none" stroke="#FFFFFF" stroke-miterlimit="10" x1="38.168" y1="105.9" x2="55.501" y2="105.9"/>
<line fill="none" stroke="#FFFFFF" stroke-miterlimit="10" x1="77.057" y1="105.9" x2="89.725" y2="105.9"/>
<line fill="none" stroke="#FFFFFF" stroke-miterlimit="10" x1="65.391" y1="105.9" x2="64.057" y2="105.9"/>
<line fill="none" stroke="#FFFFFF" stroke-miterlimit="10" x1="38.057" y1="111.979" x2="53.391" y2="111.979"/>
<line fill="none" stroke="#FFFFFF" stroke-miterlimit="10" x1="60.724" y1="111.979" x2="76.055" y2="111.979"/>
<line fill="none" stroke="#FFFFFF" stroke-miterlimit="10" x1="83.391" y1="111.979" x2="89.725" y2="111.979"/>
<line fill="none" stroke="#FFFFFF" stroke-miterlimit="10" x1="48.39" y1="117.221" x2="65.391" y2="117.221"/>
<line fill="none" stroke="#FFFFFF" stroke-miterlimit="10" x1="75.725" y1="116.721" x2="89.725" y2="116.721"/>
<line fill="none" stroke="#FFFFFF" stroke-miterlimit="10" x1="38.279" y1="117.721" x2="39.612" y2="117.721"/>
<line fill="none" stroke="#FFFFFF" stroke-miterlimit="10" x1="70.391" y1="105.9" x2="72.057" y2="105.9"/>
</svg>
